<svg xmlns="http://www.w3.org/2000/svg" width="64" height="64" viewBox="0 0 64 64">
<g>
<path d="M 29.20,62.80 C27.52,61.12 27.52,30.88 29.20,29.20 C30.66,27.74 49.00,27.52 49.00,28.96 C49.00,29.49 44.84,30.05 39.75,30.21 L 30.50,30.50 L 30.50,46.00 L 30.50,61.50 L 46.25,61.78 L 62.00,62.05 L 62.00,46.03 L 62.00,30.00 L 56.50,30.00 C53.48,30.00 51.00,29.55 51.00,29.00 C51.00,27.58 61.36,27.76 62.80,29.20 C64.48,30.88 64.48,61.12 62.80,62.80 C61.12,64.48 30.88,64.48 29.20,62.80 M 20.36,54.50 C20.78,53.41 20.25,53.00 18.42,53.00 C17.04,53.00 14.80,51.90 13.45,50.55 C11.50,48.59 11.00,47.07 11.00,43.05 C11.00,40.27 11.45,38.00 12.00,38.00 C12.55,38.00 13.00,40.22 13.00,42.94 C13.00,46.92 13.44,48.19 15.22,49.44 C18.12,51.47 21.13,51.51 20.36,49.50 C19.57,47.43 21.03,47.68 23.96,50.12 L 26.43,52.17 L 23.96,54.06 C20.98,56.35 19.58,56.52 20.36,54.50 M 38.00,55.30 C38.00,53.11 45.41,35.97 46.23,36.24 C47.11,36.54 53.97,53.34 53.99,55.25 C54.01,56.82 52.21,55.91 51.74,54.11 C51.36,52.67 50.12,52.13 46.50,51.84 C42.34,51.51 41.62,51.75 40.71,53.73 C39.75,55.85 38.00,56.86 38.00,55.30 M 49.25,49.41 C49.94,48.73 46.87,40.00 45.94,40.00 C45.60,40.00 44.77,41.69 44.09,43.75 C43.42,45.81 42.64,48.06 42.35,48.75 C42.00,49.61 42.91,50.00 45.25,50.00 C47.13,50.00 48.93,49.74 49.25,49.41 M 1.20,34.80 C-0.48,33.12 -0.48,2.88 1.20,1.20 C2.88,-0.48 33.12,-0.48 34.80,1.20 C36.28,2.68 36.50,26.00 35.03,26.00 C34.48,26.00 33.94,20.97 33.78,14.25 L 33.50,2.50 L 18.00,2.50 L 2.50,2.50 L 2.50,18.00 L 2.50,33.50 L 14.25,33.78 C20.97,33.94 26.00,34.48 26.00,35.03 C26.00,36.50 2.68,36.28 1.20,34.80 M 12.67,25.33 C12.30,24.97 11.99,22.38 11.98,19.58 C11.97,14.34 10.71,10.95 9.30,12.36 C8.86,12.80 8.23,15.94 7.90,19.33 L 7.30,25.50 L 7.15,19.45 C6.99,13.16 8.02,11.00 11.18,11.00 C13.08,11.00 13.79,12.97 14.23,19.42 C14.69,26.12 16.86,24.94 17.20,17.82 L 17.50,11.50 L 21.90,11.19 C24.74,10.98 26.60,11.34 27.14,12.19 C28.11,13.72 28.24,20.49 27.37,23.75 C26.21,28.08 25.00,25.94 25.00,19.56 C25.00,13.03 23.72,10.17 22.63,14.26 C22.30,15.49 22.02,18.66 22.01,21.31 C22.01,24.26 21.61,25.88 21.00,25.50 C20.45,25.16 20.00,21.98 20.00,18.44 C20.00,14.81 19.56,12.00 19.00,12.00 C18.45,12.00 18.00,14.60 18.00,17.80 C18.00,23.38 16.87,26.00 14.47,26.00 C13.84,26.00 13.03,25.70 12.67,25.33 M 51.00,21.72 C51.00,19.37 50.30,16.44 49.44,15.22 C47.65,12.66 42.70,12.04 43.64,14.50 C44.43,16.57 42.97,16.32 40.04,13.88 L 37.57,11.83 L 40.04,9.94 C43.02,7.65 44.42,7.48 43.64,9.50 C43.22,10.59 43.75,11.00 45.58,11.00 C46.96,11.00 49.20,12.10 50.55,13.45 C52.50,15.41 53.00,16.93 53.00,20.95 C53.00,23.73 52.55,26.00 52.00,26.00 C51.45,26.00 51.00,24.08 51.00,21.72 Z" fill="rgba(255,255,255,1)"/>
</g>
</svg>