<svg width="667" height="667" viewBox="0 0 667 667" fill="none" xmlns="http://www.w3.org/2000/svg">
<g clip-path="url(#clip0_2_2)">
<path d="M627.591 261.835C626.491 245.237 620.68 230.133 611.653 217.175C589.365 185.18 547.464 166.26 508.385 170.229C472.483 173.877 422.589 197.536 403.871 230.309C393.252 248.899 388.647 267.888 374.285 285.243C371.081 289.113 367.721 292.845 364.265 296.487C375.403 274.565 382.627 252.464 378.259 225.467C361.74 123.355 229.596 112.843 154.693 181.629C138.147 196.824 123.446 213.885 110.058 231.925C80.7948 271.357 54.2584 313.771 40.6312 360.947C27.0041 408.123 25.1625 476.265 47.8964 519.791C70.6292 563.316 120.423 579.749 169.377 575.905C194.749 573.915 219.357 564.36 239.944 549.421C263.189 568.296 296.448 573.914 327.152 573.475C404.047 572.376 480.107 541.021 535.439 487.613C594.764 430.351 633.095 344.88 627.591 261.835Z" fill="#FCE4E2"/>
<path d="M627.591 261.835L628.256 261.791C627.148 245.064 621.289 229.84 612.2 216.793C591.736 187.431 554.941 169.047 518.799 169.04C515.293 169.04 511.795 169.213 508.317 169.567C490.256 171.403 468.744 178.255 449.367 188.761C429.993 199.272 412.748 213.432 403.292 229.979C392.623 248.68 388.025 267.608 373.771 284.819C370.58 288.675 367.229 292.395 363.781 296.028L364.265 296.487L364.86 296.789C373.771 279.251 380.217 261.525 380.216 241.257C380.216 236.132 379.804 230.845 378.917 225.36C374.105 195.589 359.484 173.501 339.327 158.903C319.169 144.3 293.501 137.168 266.565 137.168C227.547 137.169 185.837 152.125 154.243 181.139C137.657 196.369 122.93 213.463 109.523 231.528C80.2391 270.989 53.6536 313.465 39.9907 360.763C33.6729 382.636 29.886 408.972 29.8855 435.299C29.888 465.929 35.0079 496.547 47.3052 520.1C57.6803 539.967 73.6677 554.233 92.6057 563.516C111.545 572.8 133.435 577.112 155.673 577.112C160.252 577.112 164.845 576.929 169.431 576.569C194.935 574.568 219.653 564.968 240.335 549.96L239.944 549.421L239.524 549.939C262.14 568.292 294.017 574.16 323.875 574.164C324.973 574.164 326.069 574.156 327.161 574.141C404.231 573.037 480.443 541.621 535.901 488.093C591.561 434.363 628.776 355.892 628.781 277.761C628.781 272.433 628.608 267.107 628.256 261.791L627.591 261.835L626.925 261.879C627.276 267.165 627.448 272.463 627.448 277.761C627.453 355.465 590.392 433.649 534.976 487.135C479.771 540.421 403.863 571.714 327.143 572.808C326.056 572.822 324.967 572.831 323.875 572.831C294.183 572.836 262.591 566.961 240.364 548.903L239.967 548.581L239.552 548.881C219.06 563.752 194.565 573.261 169.325 575.241C164.775 575.597 160.216 575.78 155.673 575.78C133.605 575.78 111.912 571.496 93.1921 562.319C74.4713 553.139 58.724 539.079 48.4869 519.481C36.3328 496.219 31.2161 465.781 31.2188 435.299C31.2183 409.1 34.9921 382.869 41.2719 361.132C54.8625 314.076 81.35 271.727 110.594 232.323C123.963 214.309 138.636 197.28 155.144 182.12C186.472 153.347 227.884 138.499 266.565 138.501C293.269 138.5 318.66 145.575 338.544 159.983C358.427 174.393 372.832 196.121 377.6 225.573C378.477 230.989 378.883 236.204 378.883 241.257C378.883 261.235 372.537 278.732 363.671 296.185L361.596 300.268L364.749 296.947C368.213 293.296 371.584 289.553 374.799 285.668C389.268 268.169 393.883 249.117 404.449 230.64C413.712 214.413 430.773 200.357 450.001 189.933C469.227 179.505 490.612 172.703 508.452 170.893C511.884 170.544 515.337 170.373 518.799 170.373C554.493 170.367 590.935 188.585 611.107 217.555C620.071 230.427 625.833 245.411 626.925 261.879L627.591 261.835Z" fill="#FCE4E2"/>
<path d="M396.98 124.173C417.136 138.448 453.463 130.516 471.62 111.573C481.835 100.915 486.296 86.772 478.889 71.136C467.948 48.04 438.621 46.4773 416.957 52.6093C403.399 56.4466 390.419 64.7879 384.423 77.5399C376.985 93.3586 382.716 114.071 396.98 124.173Z" fill="#FCE4E2"/>
<path d="M396.98 124.173L396.595 124.716C403.851 129.855 413.112 132.148 422.843 132.148C440.695 132.139 460.187 124.449 472.101 112.035C478.908 104.935 483.236 96.248 483.236 86.584C483.236 81.5587 482.064 76.2814 479.492 70.8507C475.659 62.7547 469.58 57.2361 462.399 53.7721C455.217 50.3041 446.94 48.8707 438.631 48.8707C431.117 48.8707 423.575 50.0427 416.775 51.968C403.089 55.844 389.937 64.2654 383.82 77.2574C381.557 82.0681 380.492 87.3147 380.492 92.5774C380.496 104.971 386.385 117.479 396.595 124.716L396.98 124.173L397.365 123.628C387.549 116.684 381.821 104.553 381.825 92.5774C381.825 87.4934 382.855 82.4427 385.027 77.8241C390.901 65.3121 403.707 57.0494 417.139 53.2507C423.827 51.3574 431.256 50.2027 438.631 50.204C446.788 50.2027 454.872 51.6161 461.819 54.9721C468.768 58.3307 474.584 63.6121 478.287 71.4214C480.783 76.6934 481.901 81.7667 481.903 86.584C481.901 95.8387 477.769 104.189 471.139 111.112C459.551 123.216 440.316 130.824 422.843 130.815C413.316 130.815 404.331 128.564 397.365 123.628L396.98 124.173Z" fill="#FCE4E2"/>
<path d="M575.02 525.179C557.167 511.012 531.652 521.304 515.504 534.735C505.397 543.141 497.451 554.92 497.073 567.481C496.605 583.059 509.147 597.371 525.015 599.837C547.437 603.322 575.387 582.681 583.809 560.384C588.549 547.839 587.107 534.769 575.02 525.179Z" fill="#FCE4E2"/>
<path d="M575.02 525.179L575.435 524.656C569.24 519.737 562.116 517.704 554.823 517.707C540.659 517.716 525.827 525.289 515.077 534.222C504.876 542.712 496.801 554.621 496.407 567.461C496.397 567.749 496.393 568.037 496.393 568.325C496.408 583.939 509.008 598.012 524.912 600.496C526.625 600.763 528.369 600.891 530.131 600.891C541.023 600.885 552.605 596.017 562.468 588.572C572.328 581.121 580.476 571.085 584.433 560.62C586.075 556.276 586.991 551.855 586.991 547.516C587 539.14 583.541 531.077 575.435 524.656L575.02 525.179L574.607 525.701C582.421 531.915 585.649 539.505 585.657 547.516C585.659 551.665 584.78 555.929 583.185 560.149C579.349 570.312 571.349 580.196 561.664 587.508C551.98 594.825 540.62 599.563 530.131 599.557C528.433 599.557 526.759 599.434 525.116 599.179C509.859 596.817 497.711 583.207 497.727 568.325C497.727 568.051 497.731 567.776 497.739 567.502C498.099 555.217 505.917 543.569 515.929 535.247C526.496 526.449 541.141 519.029 554.823 519.04C561.873 519.043 568.661 520.987 574.607 525.701L575.02 525.179Z" fill="#FCE4E2"/>
<path d="M309.053 568.064C297.828 564.449 285.495 566.988 274.548 571.379C257.744 578.119 234.411 588.135 224.88 604.629C217.24 617.852 212.849 639.536 230.92 645.604C236.443 647.46 242.399 647.485 248.22 647.251C269.007 646.417 290.808 641.984 306.281 628.077C312.153 622.802 316.861 616.373 321.003 609.636C321.548 608.747 322.085 607.853 322.613 606.955C324.884 603.095 327.048 599.049 327.751 594.627C329.6 582.98 320.279 571.679 309.053 568.064Z" fill="#FCE4E2"/>
<path d="M309.053 568.064L309.257 567.429C305.453 566.204 301.531 565.675 297.588 565.675C289.664 565.676 281.661 567.809 274.3 570.76C265.891 574.133 255.825 578.333 246.647 583.772C237.469 589.215 229.161 595.895 224.303 604.296C220.561 610.779 217.587 619.232 217.583 627.033C217.583 631.195 218.436 635.181 220.52 638.549C222.601 641.917 225.919 644.632 230.708 646.236C234.924 647.652 239.353 648.019 243.749 648.02C245.255 648.02 246.757 647.976 248.247 647.916C269.103 647.077 291.063 642.641 306.727 628.573C312.667 623.234 317.409 616.752 321.571 609.985C322.119 609.092 322.657 608.195 323.188 607.292C325.465 603.416 327.68 599.304 328.409 594.731C328.573 593.696 328.653 592.664 328.653 591.64C328.652 586.183 326.412 580.972 322.881 576.712C319.348 572.451 314.517 569.125 309.257 567.429L309.053 568.064L308.849 568.698C313.851 570.308 318.487 573.497 321.855 577.563C325.225 581.629 327.32 586.555 327.32 591.64C327.32 592.596 327.245 593.557 327.092 594.522C326.416 598.796 324.303 602.772 322.039 606.617C321.512 607.512 320.979 608.401 320.435 609.286C316.312 615.993 311.639 622.368 305.836 627.581C290.555 641.325 268.912 645.757 248.193 646.584C246.715 646.644 245.229 646.686 243.749 646.686C239.425 646.686 235.145 646.321 231.132 644.972C226.593 643.444 223.576 640.945 221.653 637.847C219.733 634.748 218.916 631.016 218.916 627.033C218.911 619.572 221.807 611.272 225.457 604.963C230.129 596.869 238.253 590.295 247.327 584.92C256.397 579.543 266.403 575.364 274.797 571.998C282.053 569.086 289.905 567.007 297.588 567.008C301.411 567.008 305.193 567.521 308.849 568.698L309.053 568.064Z" fill="#FCE4E2"/>
<path d="M68.2645 691.831L60.2645 691.825L60.4145 392.279L68.4145 392.284L68.2645 691.831Z" fill="#7288BE"/>
<path d="M249.964 691.831L241.964 691.825L242.115 392.279L250.115 392.284L249.964 691.831Z" fill="#7288BE"/>
<path d="M66.7682 528.227C66.838 528.492 66.926 528.753 66.9917 529.019C68.2724 531.516 69.0552 534.308 69.6202 537.002C70.0806 539.197 70.4255 541.425 70.6437 543.663C70.8516 544.089 71.0609 544.517 71.2667 544.945L282.379 484.257V467.633L66.7682 528.227Z" fill="#97A8C7"/>
<path d="M270.12 222.276C269.029 223.437 267.641 225.72 267.1 227.219C265.729 231.021 264.18 236.531 263.827 240.577C263.448 244.929 263.375 249.305 263.605 253.667C263.701 255.485 263.877 257.385 264.865 258.915C265.853 260.443 267.909 261.437 269.549 260.649C270.38 260.249 270.971 259.473 271.395 258.655C272.479 256.56 272.627 254.169 272.915 251.871C273.201 249.583 273.915 247.441 274.34 245.199C275.419 239.499 276.247 234.013 275.887 228.181C275.661 224.533 273.337 218.848 270.12 222.276Z" fill="#040606"/>
<path d="M63.764 389.733L63.5079 448.463L309.436 596.708V530.549L63.764 389.733Z" fill="#7288BE"/>
<path d="M64.014 527.135L63.7448 545.864L309.687 688.775V667.951L64.014 527.135Z" fill="#7288BE"/>
<path d="M288.713 232.273C280.253 228.249 271.173 227.727 262.089 226.568C252.724 225.373 243.291 225.971 233.868 226.568C227.779 226.953 221.696 227.34 215.639 227.241C215.312 227.236 214.976 227.233 214.673 227.356C213.792 227.713 213.641 228.951 214.009 229.825C214.824 231.765 216.572 232.732 218.476 233.391C221.553 234.456 224.947 234.568 228.14 233.707C227.448 234.692 226.276 236.791 226.085 238.003C225.92 239.053 226.716 240.789 227.577 241.288C227.708 241.417 227.865 241.552 228.032 241.68C227.423 241.852 226.905 242.009 226.759 242.077C225.631 242.595 224.651 243.716 224.253 244.945C224.089 245.452 224.087 246.04 224.365 246.471C224.717 247.011 225.397 247.165 226.017 247.261C228.424 247.629 230.94 247.713 233.201 248.7C234.271 249.165 235.148 249.936 236.236 250.424C237.459 250.973 238.719 251.453 240.048 251.644C243.508 252.143 246.561 251.42 249.9 250.26L256.987 247.8C258.617 247.235 260.3 246.661 261.988 246.801C263.303 246.911 264.535 247.448 265.74 247.977C269.097 249.451 272.153 250.788 275.708 251.505C281.043 252.583 287.232 252.889 291.4 248.993C293.835 246.719 295.045 243.149 294.768 239.819C294.444 235.929 291.911 233.795 288.713 232.273Z" fill="#F79688"/>
<path d="M323.801 387.709C316.188 376.408 305.781 369.885 292.412 378.064C288.069 380.72 284.833 384.804 281.272 388.441C275.455 394.384 268.572 399.283 261.053 402.835C258.441 404.068 255.696 405.177 253.579 407.141C251.461 409.104 250.087 412.201 251.057 414.921C260.339 440.929 296.297 418.487 308.104 406.4C306.944 407.589 343.427 460.135 339.379 431.5C337.923 421.199 332.824 401.1 323.801 387.709Z" fill="#416258"/>
<path d="M504.159 696.986L605.223 687.976C603.143 658.42 552.348 508.553 537.052 467.963C529.356 447.544 521.184 427.308 512.784 407.169C508.02 395.752 504.931 366.544 494.851 361.116C489.464 358.215 469.312 356.625 463.255 356.629C450.503 356.637 437.748 356.645 424.995 356.653C408.487 356.663 391.979 356.673 375.471 356.683C374.263 361.685 373.715 367.001 373.023 370.436C371.173 379.636 368.387 388.223 366.46 397.405C361.573 420.695 364.549 433.94 360.803 457.439C357.253 479.707 356.769 503.711 351.415 525.543C341.052 567.808 341.851 614.957 338.347 658.505C335.519 693.607 335.676 697.203 340.024 709.375C344.083 720.731 355.863 720.684 368.675 721.481C383.925 722.431 401.089 721.283 416.393 719.539C417.613 719.398 418.919 719.21 419.821 718.376C420.825 717.447 431.725 715.971 431.891 714.61C437.261 670.541 437.776 626.101 438.728 581.773C439.203 559.615 439.755 537.451 441.099 515.324C441.732 504.912 434.465 471.939 438.849 464.364C458.811 544.943 485.468 624.179 504.159 696.986Z" fill="#E9523D"/>
<path d="M308.471 595.812L527.148 531.429V470.805L309.221 528.049L308.471 595.812Z" fill="#97A8C7"/>
<path d="M428.533 406.507C431.537 439.545 434.757 475.811 435.292 480.853C435.349 481.403 435.843 481.8 436.392 481.743C436.941 481.684 437.339 481.192 437.281 480.643C436.752 475.659 433.528 439.356 430.525 406.325C430.476 405.775 429.989 405.369 429.439 405.42C428.889 405.469 428.484 405.956 428.533 406.507Z" fill="#040606"/>
<path d="M545.981 473.673L236.087 345.324L43.5875 380.72L315.807 536.655L545.981 473.673Z" fill="white"/>
<path d="M360.203 461.977L408.283 447.573L408.212 442.796L300.916 394.869L253.381 401.957L253.452 406.736L360.203 461.977Z" fill="#7288BE"/>
<path d="M360.577 455.596L408.212 442.796L296.159 391.263L253.381 401.957L360.577 455.596Z" fill="white"/>
<path d="M343.412 436.993C341.289 437.84 339.18 438.717 337.084 439.629L345.681 443.943C347.945 443.096 350.216 442.269 352.485 441.441L343.412 436.993Z" fill="#7288BE"/>
<path d="M301.937 416.667C299.819 417.335 297.72 418.064 295.636 418.833L303.703 422.88C305.625 421.949 307.583 421.105 309.604 420.425L301.937 416.667Z" fill="#7288BE"/>
<path d="M278.544 405.203L272.06 402.024L265.629 403.777L272.688 407.32C274.608 406.517 276.56 405.811 278.544 405.203Z" fill="#7288BE"/>
<path d="M280.779 406.297C278.711 406.845 276.689 407.543 274.699 408.328L283.885 412.937C285.803 412.167 287.724 411.403 289.647 410.644L280.779 406.297Z" fill="#7288BE"/>
<path d="M291.665 411.633C289.732 412.389 287.805 413.165 285.879 413.937L293.604 417.815C295.649 417.039 297.709 416.301 299.785 415.612L291.665 411.633Z" fill="#7288BE"/>
<path d="M311.821 421.512C309.681 422.113 307.615 422.908 305.6 423.832L314.549 428.323C316.493 427.431 318.451 426.568 320.416 425.724L311.821 421.512Z" fill="#7288BE"/>
<path d="M322.396 426.695C320.408 427.532 318.432 428.395 316.469 429.285L325.244 433.689C327.251 432.751 329.28 431.865 331.355 431.085L322.396 426.695Z" fill="#7288BE"/>
<path d="M333.455 432.113C331.308 432.852 329.215 433.712 327.152 434.647L335.137 438.652C337.209 437.737 339.297 436.861 341.396 436.007L333.455 432.113Z" fill="#7288BE"/>
<path d="M355.613 442.975L355.481 443.052C353.241 443.833 351.021 444.671 348.801 445.508L358.397 450.323L366.128 448.128L355.613 442.975Z" fill="#7288BE"/>
<path d="M286.127 400.013L283.099 398.592L275.456 400.676L279.764 402.764C281.888 401.855 284.009 400.937 286.127 400.013Z" fill="#7288BE"/>
<path d="M288.128 400.953C286.003 401.884 283.873 402.807 281.741 403.72L288.124 406.813C290.468 405.943 292.819 405.091 295.18 404.264L288.128 400.953Z" fill="#7288BE"/>
<path d="M297.253 405.239L296.979 405.4C294.711 406.177 292.457 406.993 290.207 407.821L297.003 411.113C299.232 410.116 301.479 409.161 303.763 408.296L297.253 405.239Z" fill="#7288BE"/>
<path d="M305.888 409.295C303.54 410.127 301.233 411.06 298.952 412.057L306.175 415.557C308.493 414.689 310.78 413.747 312.985 412.628L305.888 409.295Z" fill="#7288BE"/>
<path d="M314.908 413.531C312.76 414.701 310.519 415.669 308.24 416.559L318.265 421.415C320.52 420.375 322.772 419.331 325.021 418.281L314.908 413.531Z" fill="#7288BE"/>
<path d="M326.919 419.172L326.677 419.352C324.521 420.359 322.364 421.356 320.205 422.355L328.039 426.151C330.316 425.072 332.591 423.989 334.864 422.904L326.919 419.172Z" fill="#7288BE"/>
<path d="M336.82 423.823C334.539 424.917 332.252 426 329.964 427.083L337.419 430.695C339.735 429.631 342.051 428.573 344.345 427.468L344.499 427.428L336.82 423.823Z" fill="#7288BE"/>
<path d="M345.521 427.908C345.692 428.26 345.647 428.695 345.189 428.915C343.257 429.845 341.304 430.735 339.356 431.632L349.364 436.481C351.936 435.3 354.539 434.207 357.24 433.412L345.521 427.908Z" fill="#7288BE"/>
<path d="M359.628 434.535C356.759 435.196 354.011 436.235 351.312 437.425L370.341 446.644L379.733 443.976L359.628 434.535Z" fill="#7288BE"/>
<path d="M299.036 396.735L295.064 394.869L287.421 396.953L291.603 398.98C294.084 398.241 296.559 397.484 299.036 396.735Z" fill="#7288BE"/>
<path d="M306.587 400.28L301.303 397.8C298.815 398.563 296.323 399.316 293.828 400.057L299.629 402.868C301.939 401.98 304.26 401.124 306.587 400.28Z" fill="#7288BE"/>
<path d="M315.076 404.268L308.716 401.281C306.368 402.135 304.02 402.984 301.681 403.863L308.607 407.216C310.756 406.219 312.911 405.232 315.076 404.268Z" fill="#7288BE"/>
<path d="M325.225 409.035L317.067 405.204C314.881 406.161 312.712 407.155 310.548 408.157L318.641 412.079C320.856 411.105 323.051 410.092 325.225 409.035Z" fill="#7288BE"/>
<path d="M336.128 414.155L327.16 409.943C324.997 411.024 322.808 412.047 320.599 413.027L329.233 417.208C331.465 416.025 333.753 414.972 336.128 414.155Z" fill="#7288BE"/>
<path d="M356.668 423.803L348.507 419.969C346.312 421.084 344.128 422.213 341.959 423.375L349.757 427.153C352.012 425.923 354.309 424.789 356.668 423.803Z" fill="#7288BE"/>
<path d="M379.116 434.345L371.235 430.643C368.805 431.784 366.371 432.909 363.927 434.017L371.804 437.833C374.224 436.631 376.653 435.451 379.116 434.345Z" fill="#7288BE"/>
<path d="M381.136 435.293C378.629 436.384 376.151 437.541 373.697 438.751L382.305 442.921L391.697 440.255L381.136 435.293Z" fill="#7288BE"/>
<path d="M369.275 429.721L358.733 424.771C356.295 425.704 353.936 426.828 351.624 428.056L361.977 433.072C364.415 431.969 366.849 430.852 369.275 429.721Z" fill="#7288BE"/>
<path d="M346.592 419.069L338.385 415.215C335.867 415.923 333.461 416.94 331.124 418.125L340.111 422.48C342.259 421.319 344.419 420.181 346.592 419.069Z" fill="#7288BE"/>
<path d="M352.952 416.281L296.577 390.353C296.367 390.257 296.133 390.236 295.909 390.293L257.528 400.192C256.993 400.329 256.672 400.875 256.809 401.411C256.947 401.945 257.492 402.267 258.028 402.129L296.064 392.319L352.117 418.097C352.619 418.328 353.212 418.108 353.444 417.607C353.675 417.105 353.455 416.512 352.952 416.281Z" fill="#040606"/>
<path d="M408.629 441.888L361.957 420.423C361.456 420.192 360.863 420.412 360.632 420.913C360.401 421.415 360.62 422.009 361.123 422.24L407.795 443.704C408.296 443.935 408.889 443.716 409.12 443.213C409.351 442.712 409.132 442.119 408.629 441.888Z" fill="#040606"/>
<path d="M360.132 264.964C350.951 253.601 335.479 251.688 323.364 244.991C310.871 238.085 299.625 228.599 285.871 223.965C283.548 223.183 281.209 222.423 278.816 221.885C277.889 221.677 273.32 220.48 272.76 221.523C272.575 221.865 273.667 223.944 273.785 224.384C274.119 225.624 274.297 226.901 274.365 228.181C274.499 230.685 274.192 233.203 273.675 235.651C272.701 240.247 271.023 244.68 270.215 249.309C269.807 251.645 269.623 254.025 269.037 256.324C268.588 258.087 267.517 260.085 265.7 260.144C269.691 261.992 273.86 264.389 276.828 267.665C279.915 271.072 283.235 274.265 286.711 277.269C293.66 283.279 301.236 288.543 309.107 293.267L309.147 293.292C326.665 303.803 345.891 305.439 348.189 305.555C367.961 306.556 364.865 298.709 366.351 290.5C367.997 281.385 365.667 271.811 360.132 264.964Z" fill="#A0B3E1"/>
<path d="M391.704 239.039C378.956 242.285 356.043 252.16 343.184 254.999C331.517 257.575 331.208 255.272 325.357 267.197C320.792 276.501 323.615 288.415 330.823 295.863C339.455 304.779 351.103 307.091 362.485 304.085C376.057 300.501 389.557 298.819 402.512 292.916C417.788 285.956 441.427 276.643 442.956 257.805C445.303 228.9 408.12 234.857 391.704 239.039Z" fill="#A0B3E1"/>
<path d="M505.863 381.639C507.085 379.487 494.216 329.96 495.852 328.08C495.245 308.769 488.916 310.471 489.608 291.164C490.012 279.896 482.805 259.24 478.095 248.868C474.328 240.573 459.547 227.859 450.696 224.168C429.993 215.537 400.655 236.209 392.503 254.371C390.317 259.237 388.061 264.071 385.887 268.939C382.704 276.059 382.247 284.101 381.156 291.848C378.904 307.843 372.745 362.055 371.215 378.135L505.863 381.639Z" fill="#A0B3E1"/>
<path d="M375.251 373.255C374.757 375.072 375.336 377.527 375.845 379.292C376.367 381.1 377.683 382.647 378.711 384.223C379.405 385.287 380.309 386.209 380.92 387.321C381.404 388.201 381.687 389.172 382.059 390.103C382.627 391.531 383.396 392.867 384.161 394.197C386.532 398.311 388.903 402.424 391.272 406.537C391.489 406.915 391.721 407.307 392.092 407.532C392.691 407.897 393.504 407.711 394.055 407.277C394.933 406.585 395.501 405.371 395.817 404.324C397.04 400.299 397.165 396.027 397.087 391.82C396.993 386.725 396.509 381.333 393.515 377.213C390.967 373.709 386.865 371.577 382.64 370.616C381.368 370.325 380.143 370.003 378.88 370.329C377.325 370.731 375.583 372.032 375.251 373.255Z" fill="#040606"/>
<path d="M396.545 374.069C386.929 376.129 378.909 381.3 370.503 385.979C364.376 389.385 358.647 393.385 353.475 397.989C350.373 400.439 347.797 403.432 345.235 406.417C342.759 409.3 339.219 411.38 336.02 413.464C334.98 414.141 333.891 414.847 333.275 415.925C332.66 417.003 332.711 418.575 333.728 419.287C334.127 419.565 334.617 419.68 335.1 419.748C337.621 420.1 340.201 419.329 342.396 418.039C344.193 416.98 349.588 413.375 349.713 410.928L349.68 411.236C349.727 411.987 350.004 412.763 350.576 413.277C351.26 413.895 352.103 414.107 353.004 413.956C353.565 413.863 354.1 413.596 354.591 413.255C354.487 413.795 354.421 414.343 354.44 414.883C354.463 415.577 354.665 416.223 355.137 416.747C355.612 417.268 356.372 417.569 357.069 417.579C358.16 417.593 359.08 417.008 359.823 416.263C359.729 416.469 359.643 416.681 359.584 416.913C359.315 417.96 359.595 419.096 360.243 419.948C361.767 421.948 364.06 421.021 365.859 420.025C371.86 416.703 377.159 412.427 381.672 407.265C382.835 405.937 384.009 404.369 383.871 402.609C386.287 401.957 388.659 401.143 390.964 400.172C393.124 399.264 395.075 398.053 397.171 397.068C402.348 394.631 407.784 391.067 408.959 385.465C409.644 382.195 408.508 378.665 406.253 376.236C403.621 373.401 400.18 373.292 396.545 374.069Z" fill="#F79688"/>
<path d="M360.485 417.561C360.952 416.868 361.42 416.175 361.887 415.481C362.195 415.024 362.073 414.403 361.615 414.093C361.157 413.785 360.536 413.907 360.228 414.365C359.761 415.057 359.295 415.749 358.827 416.443C358.519 416.9 358.639 417.521 359.096 417.831C359.555 418.14 360.176 418.019 360.485 417.561Z" fill="#040606"/>
<path d="M354.856 414.539C355.395 413.647 355.935 412.753 356.475 411.861C356.76 411.389 356.608 410.773 356.136 410.488C355.663 410.203 355.048 410.355 354.763 410.827C354.224 411.719 353.683 412.612 353.144 413.504C352.859 413.976 353.009 414.592 353.483 414.877C353.955 415.163 354.569 415.011 354.856 414.539Z" fill="#040606"/>
<path d="M350.104 412.429C351.135 410.827 352.344 409.337 353.703 408.001C354.096 407.613 354.101 406.981 353.715 406.587C353.327 406.193 352.693 406.188 352.3 406.575C350.835 408.016 349.532 409.62 348.421 411.348C348.123 411.812 348.257 412.431 348.723 412.729C349.187 413.028 349.805 412.893 350.104 412.429Z" fill="#040606"/>
<path d="M332.081 419.031C333.485 420.063 335.175 420.488 336.835 420.488C337.903 420.488 338.968 420.313 339.969 419.999C342.504 419.199 344.611 417.643 346.536 416.104C346.968 415.759 347.037 415.129 346.692 414.697C346.347 414.267 345.717 414.197 345.285 414.543C343.409 416.049 341.485 417.429 339.369 418.091C338.553 418.348 337.684 418.489 336.835 418.488C335.509 418.488 334.253 418.148 333.265 417.42C332.821 417.093 332.195 417.188 331.868 417.633C331.541 418.079 331.636 418.704 332.081 419.031Z" fill="#040606"/>
<path d="M493.737 294.919C490.08 275.904 485.08 253.896 471.587 239.857C459.199 226.968 441.659 231.977 438.74 251.183C435.559 272.109 448.253 289.872 445.575 310.283C443.841 323.497 431.639 332.425 420.497 339.739C414.593 343.613 408.689 347.488 402.785 351.364C394.591 356.741 376.28 370.693 375.845 372.316C389.348 376.259 397.119 401.16 392.989 407.792C398.536 408.017 406.479 399.763 411.791 397.848C436.508 388.937 467.572 376.531 486.229 357.612C504.543 339.043 499.368 324.2 493.737 294.919Z" fill="#A0B3E1"/>
<path d="M379.568 371.055C386.837 364.148 396.915 357.116 407.248 350.431C417.583 343.741 428.173 337.393 436.519 331.791C437.553 331.095 439.051 330.176 440.395 329.065C441.729 327.949 442.983 326.647 443.385 324.941C443.524 324.327 443.576 323.715 443.576 323.116C443.575 321.917 443.369 320.771 443.184 319.699C441.428 309.648 437.776 297.981 436.907 288.072C436.859 287.523 436.373 287.116 435.823 287.164C435.273 287.213 434.867 287.699 434.915 288.248C435.824 298.479 439.501 310.176 441.213 320.041C441.401 321.113 441.577 322.153 441.576 323.116C441.576 323.597 441.535 324.059 441.435 324.503C441.243 325.433 440.332 326.537 439.12 327.524C437.92 328.519 436.489 329.401 435.403 330.129C427.127 335.689 416.533 342.04 406.161 348.751C395.788 355.467 385.635 362.537 378.191 369.605C377.791 369.985 377.775 370.619 378.155 371.019C378.535 371.419 379.168 371.435 379.569 371.055" fill="#040606"/>
<path d="M413.585 234.852C423.323 233.619 431.993 220.687 441.779 219.948C442.36 219.904 445.475 223.812 446.06 223.777C446.929 216.463 445.447 205.237 446.356 197.928C446.944 193.201 447.476 188.465 447.852 183.716C448.041 181.343 448.168 178.968 448.295 176.591C448.576 171.351 447.224 164.979 442.287 161.787C440.983 160.943 439.495 160.437 438.017 159.967C434.215 158.753 430.316 157.701 426.329 157.577C418.491 157.333 408.579 158.169 402.229 163.279C400.52 164.653 399.596 166.095 398.833 168.105C397.931 170.483 395.836 172.352 395.004 174.787C393.179 180.123 393.641 186.225 393.764 191.823C393.86 196.249 394.285 200.871 396.133 204.951C397.608 208.203 400.673 212.977 404.336 213.935C406.835 214.588 409.404 214.968 411.983 215.068C412.153 217.709 413.416 232.211 413.585 234.852Z" fill="#F79688"/>
<path d="M413.904 252.335C417.283 251.707 420.16 249.023 422.492 246.607C425.655 243.331 428.391 239.665 431.787 236.615C436.907 232.015 442.483 228.035 448.501 224.885C448.227 224.176 447.727 223.493 447.115 222.928C444.405 220.425 443.168 218.445 442.316 214.673C442.223 214.255 442.139 213.833 442.047 213.415C441.741 213.543 441.436 213.663 441.132 213.793C434.668 216.579 428.248 219.472 421.877 222.465C419.049 223.793 415.813 224.721 413.992 227.381C412.407 229.7 411.605 232.465 410.943 235.164C410.712 236.097 410.516 237.039 410.309 237.977C410.321 241.879 410.688 245.765 412.263 249.26C412.741 250.323 413.304 251.339 413.904 252.335Z" fill="#F79688"/>
<path d="M428.409 212.377C428.023 208.039 427.844 203.675 427.908 199.321C427.977 194.737 427.313 190.492 426.495 185.932C425.941 187.14 425.367 188.401 423.94 188.812C422.584 185.952 422.276 182.608 423.084 179.547C414.42 182.212 405.299 184.397 396.351 182.941C395.065 182.732 393.731 182.419 392.751 181.559C391.501 180.459 390.839 178.584 391.315 176.989C400.247 147.131 441.041 147.631 452.567 163.533C453.799 165.235 455.137 166.863 456.104 168.728C458.108 172.597 459.283 176.836 460.327 181.067C461.989 187.803 462.447 195.108 463.468 202.008C463.867 204.693 464.265 207.383 464.847 210.036C466.704 218.532 470.439 226.801 470.075 235.491C470.059 235.901 470 236.371 469.659 236.6C469.405 236.772 469.073 236.752 468.768 236.72C463.975 236.232 459.303 234.595 455.253 231.983C455.461 233.616 455.561 235.548 454.304 236.613C453.616 237.199 452.672 237.363 451.772 237.447C443.004 238.265 434.015 232.781 430.729 224.611C429.515 221.591 429.032 218.331 428.68 215.095C428.58 214.189 428.491 213.285 428.409 212.377Z" fill="#E9523D"/>
<path d="M425.263 196.015C418.703 188.744 431.935 178.984 436.747 187.996C437.973 190.293 437.763 193.164 436.416 195.337C435.844 196.263 435.071 197.08 434.112 197.629C433.392 198.041 432.577 198.296 431.744 198.404C429.381 198.711 426.855 197.78 425.263 196.015Z" fill="#F79688"/>
<path d="M378.72 328.773C380.955 295.397 384.523 268.828 394.351 253.152C394.643 252.683 394.5 252.067 394.032 251.773C393.564 251.481 392.947 251.623 392.655 252.092C382.459 268.451 378.995 295.189 376.724 328.639C376.688 329.189 377.104 329.667 377.655 329.703C378.207 329.74 378.683 329.324 378.72 328.773Z" fill="#040606"/>
<path d="M400.889 186.396C401.017 186.883 401.073 187.347 401.073 187.804C401.083 189.495 400.264 191.175 399.297 192.993C398.981 193.611 398.584 194.375 398.571 195.328C398.569 195.725 398.657 196.161 398.875 196.563C399.216 197.195 399.783 197.572 400.323 197.777C400.869 197.985 401.423 198.053 401.931 198.055C402.135 198.055 402.331 198.043 402.519 198.021C403.067 197.959 403.461 197.463 403.399 196.915C403.336 196.365 402.84 195.972 402.291 196.035C402.18 196.047 402.057 196.055 401.931 196.055C401.615 196.056 401.276 196.004 401.04 195.911C400.796 195.815 400.687 195.709 400.635 195.613V195.612C400.593 195.533 400.573 195.456 400.571 195.328C400.559 195.028 400.773 194.464 401.067 193.927C402.021 192.1 403.065 190.137 403.073 187.804C403.073 187.181 402.996 186.537 402.821 185.883C402.68 185.349 402.132 185.031 401.599 185.172C401.065 185.315 400.747 185.861 400.889 186.396Z" fill="#040606"/>
<path d="M396.385 200.896C396.331 201.121 396.308 201.343 396.308 201.553C396.311 202.152 396.475 202.656 396.623 203.075V203.076C396.961 203.999 397.437 205.011 398.343 205.78C399.168 206.471 400.204 206.799 401.229 206.8C401.783 206.799 402.337 206.704 402.863 206.507C404.351 205.939 405.447 204.688 405.923 203.228C406.092 202.701 405.804 202.139 405.279 201.968C404.752 201.799 404.189 202.088 404.02 202.613C403.731 203.524 403.005 204.323 402.16 204.635C401.869 204.743 401.549 204.8 401.229 204.8C400.632 204.8 400.045 204.601 399.631 204.249C399.151 203.852 398.784 203.177 398.504 202.396V202.397C398.379 202.056 398.305 201.752 398.308 201.553L398.328 201.373C398.46 200.836 398.132 200.295 397.595 200.164C397.059 200.032 396.517 200.36 396.385 200.896Z" fill="#040606"/>
<path d="M407.456 215.581C407.785 215.591 408.116 215.596 408.445 215.596C413.687 215.596 418.917 214.359 423.601 212.001C424.095 211.753 424.293 211.152 424.045 210.659C423.797 210.165 423.196 209.967 422.703 210.215C418.303 212.429 413.371 213.596 408.445 213.596C408.136 213.596 407.825 213.592 407.515 213.583C406.963 213.565 406.503 214 406.485 214.552C406.469 215.104 406.904 215.565 407.456 215.581Z" fill="#040606"/>
<path d="M436.285 189.151C435.795 188.544 435.153 188.132 434.484 187.879C433.812 187.625 433.107 187.519 432.42 187.519C432.265 187.519 432.113 187.524 431.961 187.535C430.943 187.608 429.867 187.891 428.952 188.569C427.691 189.525 427.124 190.887 426.621 192.013C426.4 192.519 426.631 193.108 427.136 193.329C427.643 193.551 428.232 193.32 428.453 192.815C428.939 191.685 429.437 190.688 430.147 190.173C430.651 189.793 431.353 189.581 432.101 189.529L432.42 189.519C432.897 189.519 433.373 189.596 433.773 189.749C434.177 189.903 434.499 190.123 434.732 190.409C435.08 190.839 435.709 190.905 436.139 190.557C436.568 190.209 436.633 189.58 436.285 189.151Z" fill="#040606"/>
<path d="M435.003 280.405C434.048 276.673 433.556 272.911 433.556 269.171C433.556 262.863 434.955 256.623 437.919 250.693C438.165 250.2 437.965 249.599 437.472 249.352C436.977 249.105 436.377 249.305 436.131 249.799C433.025 256.005 431.555 262.568 431.556 269.171C431.556 273.087 432.072 277.016 433.065 280.9C433.201 281.436 433.747 281.759 434.281 281.621C434.816 281.485 435.139 280.94 435.003 280.405Z" fill="#040606"/>
<path d="M227.015 243.404C228.128 243.169 229.271 243.092 230.447 243.092C232.257 243.091 234.14 243.279 236.075 243.311H236.208C236.736 243.309 237.336 243.267 237.943 243.053C238.541 242.849 239.191 242.408 239.527 241.668C239.719 241.249 239.791 240.808 239.791 240.387C239.783 239.404 239.436 238.484 239.028 237.657C238.616 236.833 238.127 236.117 237.731 235.621C236.621 234.267 234.927 233.657 233.219 233.305C231.503 232.963 229.716 232.907 228.332 232.905C228.149 232.905 227.975 232.907 227.807 232.908C226.015 232.943 224.548 233.487 223.247 233.469C223.036 233.469 222.828 233.457 222.621 233.429C220.56 233.163 218.289 232.4 216.585 231.271C216.208 231.023 215.911 230.775 215.731 230.517C215.413 230.065 214.789 229.957 214.337 230.276C213.887 230.593 213.779 231.217 214.096 231.669C214.508 232.249 215.023 232.633 215.483 232.939C217.513 234.276 220.019 235.103 222.363 235.413C222.664 235.452 222.959 235.469 223.247 235.469C225.027 235.451 226.492 234.903 227.827 234.908C227.988 234.907 228.157 234.905 228.332 234.905C229.655 234.905 231.332 234.967 232.825 235.267C234.328 235.56 235.588 236.123 236.171 236.873C236.477 237.253 236.908 237.885 237.239 238.551C237.576 239.215 237.797 239.927 237.791 240.387C237.791 240.585 237.757 240.729 237.709 240.833C237.639 240.975 237.548 241.064 237.273 241.169C237.008 241.265 236.605 241.313 236.208 241.311H236.107C234.284 241.283 232.391 241.093 230.447 241.092C229.184 241.092 227.899 241.173 226.601 241.448C226.06 241.561 225.715 242.092 225.829 242.633C225.944 243.173 226.475 243.519 227.015 243.404Z" fill="#040606"/>
<path d="M233.875 234.447C233.324 235.731 232.515 236.899 231.528 237.843C231.209 238.147 231.128 238.621 231.327 239.016C231.525 239.409 231.956 239.625 232.391 239.551L232.649 239.528C233.096 239.525 233.601 239.732 233.988 240.088C234.463 240.516 234.824 241.192 235.024 241.952C235.061 242.093 235.125 242.217 235.217 242.331L235.319 242.453C235.601 242.799 236.083 242.915 236.492 242.735C236.903 242.556 237.144 242.124 237.081 241.681L237.071 241.601C236.995 241.055 236.489 240.673 235.943 240.749C235.396 240.825 235.013 241.331 235.089 241.879L235.101 241.957L236.092 241.819L236.865 241.185L236.764 241.063L235.991 241.696L236.957 241.44C236.683 240.409 236.181 239.387 235.336 238.611C234.617 237.956 233.675 237.532 232.649 237.528C232.451 237.528 232.249 237.545 232.049 237.58L232.22 238.565L232.911 239.287C234.097 238.152 235.055 236.765 235.712 235.237C235.931 234.729 235.696 234.141 235.188 233.924C234.681 233.705 234.092 233.94 233.875 234.447Z" fill="#040606"/>
<path d="M258.28 248.507C259.504 248.191 260.509 247.452 261.32 246.62C262.127 245.789 262.748 244.864 263.337 243.995C263.648 243.537 263.528 242.916 263.071 242.607C262.615 242.296 261.992 242.416 261.683 242.873C261.095 243.743 260.529 244.567 259.885 245.227C259.247 245.888 258.509 246.387 257.785 246.568C257.251 246.705 256.927 247.249 257.064 247.785C257.201 248.32 257.745 248.643 258.28 248.507Z" fill="#040606"/>
<path d="M409.499 235.721C409.211 237.508 409.017 239.375 409.017 241.255C409.017 244.499 409.593 247.801 411.301 250.731C411.82 251.62 412.424 252.296 413.12 252.751C413.815 253.208 414.596 253.419 415.351 253.415C416.845 253.404 418.199 252.693 419.443 251.813C420.684 250.925 421.828 249.821 422.797 248.847C425.575 246.049 427.659 243.128 429.808 240.371C431.959 237.611 434.168 235.019 437.2 232.777C437.644 232.449 437.737 231.824 437.409 231.38C437.081 230.935 436.455 230.841 436.011 231.169C432.756 233.575 430.413 236.341 428.231 239.141C426.047 241.945 424.016 244.784 421.379 247.437C420.437 248.385 419.356 249.419 418.28 250.185C417.204 250.963 416.145 251.427 415.351 251.415C414.941 251.412 414.591 251.319 414.213 251.076C413.839 250.832 413.432 250.413 413.029 249.723C411.556 247.2 411.017 244.269 411.017 241.255C411.017 239.512 411.197 237.748 411.473 236.04C411.56 235.495 411.189 234.981 410.644 234.893C410.099 234.805 409.585 235.176 409.499 235.721Z" fill="#040606"/>
<path d="M412.392 228.467C412.556 229.32 413.048 230.013 413.647 230.505C414.249 231 414.968 231.321 415.712 231.467C416.108 231.543 416.5 231.573 416.883 231.573C417.871 231.572 418.793 231.376 419.635 231.2C420.176 231.087 420.521 230.557 420.408 230.016C420.295 229.476 419.764 229.129 419.224 229.243C418.389 229.42 417.595 229.576 416.883 229.573C416.607 229.573 416.344 229.552 416.091 229.503C415.667 229.423 415.233 229.224 414.92 228.963C414.603 228.7 414.415 228.401 414.356 228.089C414.251 227.547 413.727 227.192 413.185 227.296C412.643 227.4 412.287 227.924 412.392 228.467Z" fill="#040606"/>
<path d="M466.597 372.248C452.453 381.347 436.873 386.928 421.115 392.904C420.599 393.1 420.339 393.677 420.535 394.193C420.731 394.709 421.308 394.969 421.824 394.773C437.556 388.804 453.281 383.188 467.679 373.929C468.143 373.631 468.277 373.012 467.979 372.548C467.68 372.084 467.061 371.949 466.597 372.248Z" fill="#040606"/>
<path d="M497.611 331.932C497.692 332.757 497.731 333.567 497.731 334.363C497.732 342.187 493.949 348.672 489.316 353.875C484.684 359.072 479.257 362.908 476.109 365.432C475.679 365.777 475.609 366.407 475.956 366.837C476.301 367.268 476.931 367.337 477.361 366.991C480.424 364.531 485.996 360.604 490.808 355.205C495.62 349.809 499.729 342.863 499.731 334.363C499.731 333.501 499.688 332.627 499.6 331.736C499.547 331.185 499.057 330.784 498.507 330.839C497.957 330.893 497.556 331.383 497.611 331.932Z" fill="#040606"/>
<path d="M383.571 405.743C383.868 405.579 383.961 405.424 384.059 405.295C384.211 405.067 384.3 404.849 384.395 404.591C384.661 403.829 384.876 402.732 384.88 401.547C384.875 400.532 384.727 399.451 384.155 398.508C383.864 398.037 383.248 397.892 382.779 398.181C382.308 398.472 382.163 399.088 382.452 399.557C382.729 399.992 382.885 400.751 382.88 401.547C382.881 402.248 382.772 402.971 382.636 403.497C382.571 403.76 382.496 403.975 382.443 404.093L382.411 404.159L382.401 404.175L382.947 404.52L382.661 403.961C382.409 404.107 382.412 404.177 382.401 404.175L382.947 404.52L382.661 403.961C382.169 404.212 381.973 404.815 382.225 405.307C382.476 405.799 383.079 405.993 383.571 405.743Z" fill="#040606"/>
<path d="M397.163 188.928C397.163 189.845 396.419 190.588 395.503 190.588C394.585 190.588 393.844 189.845 393.844 188.928C393.844 188.012 394.585 187.268 395.503 187.268C396.419 187.268 397.163 188.012 397.163 188.928Z" fill="#040606"/>
<path d="M411.155 189.12C411.155 190.136 410.331 190.96 409.313 190.96C408.297 190.96 407.473 190.136 407.473 189.12C407.473 188.103 408.297 187.279 409.313 187.279C410.331 187.279 411.155 188.103 411.155 189.12Z" fill="#040606"/>
<path d="M308.471 688.293L527.148 623.91V607.286L309.221 668.532L308.471 688.293Z" fill="#97A8C7"/>
<path d="M344.641 253.972C345.985 256.933 347.331 259.895 348.673 262.856C348.901 263.359 349.495 263.581 349.997 263.353C350.5 263.125 350.723 262.532 350.495 262.029C349.151 259.068 347.807 256.107 346.463 253.145C346.235 252.643 345.641 252.42 345.139 252.648C344.636 252.876 344.413 253.469 344.641 253.972Z" fill="#040606"/>
<path d="M347.536 301.411C348.811 302.373 350.372 302.843 351.925 302.844C353.356 302.843 354.793 302.445 356.007 301.617C356.463 301.305 356.58 300.683 356.268 300.227C355.956 299.771 355.335 299.655 354.879 299.965C354.033 300.544 352.984 300.844 351.925 300.844C350.775 300.844 349.629 300.489 348.744 299.816C348.304 299.483 347.676 299.569 347.343 300.009C347.009 300.451 347.096 301.077 347.537 301.411" fill="#040606"/>
<path d="M272.077 222.909C272.216 222.961 272.193 222.953 272.261 223.048C272.357 223.189 272.449 223.677 272.468 224.313C272.499 224.951 272.493 225.721 272.645 226.521C272.937 228.048 273.065 229.597 273.065 231.161C273.065 234.669 272.42 238.249 271.576 241.759C270.472 246.352 269.049 250.869 267.321 255.265C267.119 255.78 267.372 256.36 267.885 256.563C268.4 256.764 268.98 256.512 269.183 255.997C270.945 251.515 272.396 246.909 273.521 242.227C274.381 238.643 275.064 234.913 275.065 231.161C275.065 229.489 274.929 227.812 274.609 226.145C274.463 225.416 274.512 224.46 274.416 223.519C274.361 223.045 274.273 222.553 274.005 222.068C273.745 221.583 273.231 221.144 272.619 220.984C272.087 220.835 271.535 221.144 271.385 221.676C271.236 222.208 271.545 222.76 272.077 222.909Z" fill="#040606"/>
<path d="M375.511 373.433C375.813 373.467 376.311 373.599 376.863 373.805C377.695 374.113 378.671 374.579 379.535 375.068C380.396 375.553 381.163 376.081 381.536 376.433C388.007 382.449 392.825 390.813 392.813 399.295C392.813 400.525 392.713 401.76 392.504 402.995C392.411 403.539 392.777 404.055 393.321 404.148C393.867 404.24 394.383 403.873 394.475 403.329C394.704 401.981 394.813 400.635 394.813 399.295C394.801 390.043 389.657 381.269 382.899 374.969C382.119 374.251 380.875 373.483 379.544 372.807C378.88 372.472 378.2 372.168 377.557 371.929C376.911 371.692 376.309 371.515 375.741 371.447C375.193 371.384 374.696 371.776 374.633 372.325C374.569 372.873 374.963 373.371 375.511 373.433Z" fill="#040606"/>
<path d="M62.2562 514.663C62.1469 566.739 62.1469 618.737 61.6943 670.133C61.6896 670.685 62.1333 671.138 62.6854 671.143C63.238 671.146 63.6896 670.704 63.6943 670.151C64.1469 618.743 64.1469 566.74 64.2562 514.667C64.2573 514.115 63.8104 513.665 63.2584 513.664C62.7062 513.663 62.2573 514.111 62.2562 514.663Z" fill="#040606"/>
<path d="M62.6953 393.135C62.3479 414.417 62.2203 435.596 62.2203 456.904C62.2203 469.235 62.2631 481.609 62.3307 494.072C62.3333 494.624 62.7839 495.069 63.336 495.067C63.888 495.064 64.3333 494.613 64.3303 494.061C64.2631 481.601 64.2203 469.231 64.2203 456.904C64.2203 435.604 64.3479 414.436 64.6948 393.168C64.7036 392.616 64.2636 392.16 63.7115 392.152C63.1593 392.143 62.7041 392.583 62.6953 393.135Z" fill="#040606"/>
<path d="M456.367 232.557C454.081 228.976 451.796 225.396 449.511 221.817C449.213 221.352 448.595 221.215 448.129 221.512C447.664 221.809 447.528 222.428 447.825 222.893C450.109 226.472 452.395 230.053 454.68 233.633C454.977 234.099 455.596 234.235 456.061 233.937C456.527 233.64 456.663 233.023 456.367 232.557Z" fill="#040606"/>
<path d="M464.956 236.28C466.892 237.512 468.828 238.743 470.763 239.975C471.228 240.271 471.847 240.133 472.143 239.668C472.44 239.201 472.303 238.584 471.836 238.287C469.901 237.055 467.965 235.824 466.031 234.592C465.564 234.296 464.947 234.433 464.649 234.899C464.353 235.365 464.491 235.983 464.956 236.28Z" fill="#040606"/>
<path d="M423.567 180.869C423.924 179.801 424.424 178.78 425.048 177.841C425.355 177.381 425.229 176.761 424.769 176.455C424.311 176.149 423.689 176.273 423.384 176.733C422.661 177.819 422.084 178.999 421.669 180.235C421.495 180.759 421.777 181.325 422.301 181.5C422.824 181.676 423.391 181.393 423.567 180.869Z" fill="#040606"/>
<path d="M149.773 440.989C131.003 430.175 112.232 419.361 93.462 408.548C78.5703 399.968 63.6781 391.389 48.7869 382.809C45.9645 381.184 43.1427 379.559 40.3208 377.932L39.6552 379.087C42.4765 380.713 45.2989 382.34 48.1213 383.965C63.0125 392.544 77.9047 401.124 92.7964 409.703C111.567 420.517 130.337 431.331 149.108 442.144L149.773 440.989Z" fill="#040606"/>
<path d="M259.393 660.229C240.644 649.428 219.095 635.531 200.303 624.704C185.416 616.127 66.9057 546.915 64.0771 545.285L63.412 546.441C66.2281 548.063 184.741 617.277 199.637 625.859C218.387 636.66 239.937 650.559 258.728 661.385L259.393 660.231" fill="#040606"/>
<path d="M190.821 464.637C180.843 459.512 171.508 452.844 161.213 447.58L160.605 448.767C170.787 453.969 180.119 460.635 190.211 465.824L190.821 464.637Z" fill="#040606"/>
<path d="M313.221 832.424L305.221 832.419L305.371 530.204L313.345 535.089L313.221 832.424Z" fill="#7288BE"/>
<path d="M530.961 723.697L522.961 723.692L523.111 480.145L531.111 477.484L530.961 723.697Z" fill="#7288BE"/>
<path d="M323.072 539.861L235.651 488.931L234.98 490.083L322.4 541.014" fill="#040606"/>
<path d="M115.52 479.54C100.604 470.776 85.6885 462.013 70.7724 453.248L70.7729 453.249C69.8609 452.712 68.9484 452.177 68.0369 451.641L67.362 452.792C68.2735 453.327 69.1855 453.861 70.0964 454.397L70.0969 454.399C85.0131 463.163 99.9292 471.925 114.845 480.689L115.52 479.54Z" fill="#040606"/>
<path d="M281.272 578.281C271.475 572.524 205.787 532.577 183.62 519.553C169.829 511.451 156.04 503.348 142.251 495.245L141.575 496.396C155.364 504.497 169.155 512.6 182.944 520.703C205.095 533.717 270.775 573.659 280.596 579.431L281.272 578.281Z" fill="#040606"/>
<path d="M340.156 530.684L463.877 497.533L463.532 496.245L339.812 529.396" fill="#040606"/>
<path d="M417.971 564.791C452.989 554.524 488.009 544.261 523.013 533.944L522.637 532.665C487.633 542.981 452.615 553.245 417.596 563.512L417.971 564.791Z" fill="#040606"/>
<path d="M331.599 590.161C356.227 582.904 380.86 575.673 405.499 568.448L405.124 567.169C380.485 574.395 355.851 581.625 331.223 588.881L331.599 590.161Z" fill="#040606"/>
<path d="M471.937 624.469C488.653 619.384 504.649 615.385 521.88 610.532L521.519 609.248C504.312 614.095 488.307 618.096 471.549 623.193L471.937 624.469Z" fill="#040606"/>
<path d="M366.184 653.484C396.263 645.04 426.516 637.197 456.611 628.747L456.251 627.463C426.173 635.909 395.919 643.752 365.824 652.2L366.184 653.484Z" fill="#040606"/>
<path d="M328.181 664.586C336.709 661.976 345.263 659.453 353.835 656.991L353.467 655.708C344.888 658.173 336.327 660.698 327.791 663.312L328.181 664.586Z" fill="#040606"/>
<path d="M81.574 373.057L43.4672 380.065L43.7084 381.376L81.8151 374.368" fill="#040606"/>
<path d="M266.1 357.035L236.16 344.633L101.392 369.413L101.633 370.725L236.013 346.016L265.591 358.265L266.1 357.035Z" fill="#040606"/>
<path d="M513.693 459.58L288.779 366.425L288.268 367.657L513.184 460.812L513.693 459.58Z" fill="#040606"/>
<path d="M546.236 473.057L529.147 465.98L528.636 467.212L545.727 474.289" fill="#040606"/>
<path d="M310.051 533.897L309.049 688.221L310.383 688.229L311.384 533.905" fill="#040606"/>
<path d="M529.292 541.196C529.219 568.635 529.183 596.02 529.183 623.36C529.183 650.7 529.219 677.993 529.292 705.245L530.625 705.243C530.552 677.991 530.516 650.698 530.516 623.36C530.516 596.021 530.552 568.637 530.625 541.2L529.292 541.196Z" fill="#040606"/>
<path d="M529.292 492.92C529.219 498.496 529.183 504.284 529.183 510.033C529.183 515.781 529.219 521.489 529.292 526.903L530.625 526.885C530.552 521.477 530.516 515.776 530.516 510.033C530.516 504.289 530.552 498.507 530.625 492.937L529.292 492.92Z" fill="#040606"/>
<path d="M506.317 485.217L546.157 474.316L545.805 473.031L505.965 483.932" fill="#040606"/>
<path d="M105.781 236.608V121.037L185.149 158.799C174.164 164.957 163.745 172.412 154.243 181.139C137.657 196.369 122.93 213.463 109.523 231.528C108.27 233.216 107.023 234.909 105.781 236.608Z" fill="#9DB4D4"/>
<path d="M209.592 334.035L105.781 275.647V238.871C107.376 236.679 108.98 234.497 110.594 232.323C123.963 214.309 138.636 197.28 155.144 182.12C164.804 173.248 175.425 165.699 186.628 159.501L243.911 186.756V226.012C240.564 226.144 237.216 226.356 233.868 226.568C228.428 226.912 222.992 227.257 217.576 227.257C216.929 227.257 216.284 227.252 215.639 227.241C215.576 227.241 215.515 227.24 215.452 227.24C215.185 227.24 214.919 227.257 214.673 227.356C213.792 227.713 213.641 228.951 214.009 229.825C214.084 230.005 214.167 230.176 214.257 230.339C213.875 230.671 213.799 231.245 214.096 231.669C214.508 232.249 215.023 232.633 215.483 232.939C217.513 234.276 220.019 235.103 222.363 235.413C222.664 235.452 222.959 235.469 223.247 235.469C224.829 235.453 226.164 235.017 227.379 234.925C226.8 235.941 226.215 237.177 226.085 238.003C225.921 239.047 226.707 240.767 227.561 241.279C227.241 241.324 226.921 241.38 226.601 241.448C226.06 241.561 225.715 242.092 225.829 242.633C225.831 242.641 225.833 242.651 225.835 242.659C225.116 243.247 224.537 244.068 224.253 244.945C224.089 245.452 224.087 246.04 224.365 246.471C224.717 247.011 225.397 247.165 226.017 247.261C228.424 247.629 230.94 247.713 233.201 248.7C234.271 249.165 235.148 249.936 236.236 250.424C237.459 250.973 238.719 251.453 240.048 251.644C240.808 251.753 241.548 251.804 242.276 251.804C242.827 251.804 243.371 251.775 243.911 251.721V283.859L209.592 267.531V334.035Z" fill="#9BA8C8"/>
<path d="M105.781 238.871V236.608C107.023 234.909 108.27 233.216 109.523 231.528C122.93 213.463 137.657 196.369 154.243 181.139C163.745 172.412 174.164 164.957 185.149 158.799L186.628 159.501C175.425 165.699 164.804 173.248 155.144 182.12C138.636 197.28 123.963 214.309 110.594 232.323C108.98 234.497 107.376 236.679 105.781 238.871Z" fill="#9BA8C8"/>
<path d="M242.276 251.804C241.548 251.804 240.808 251.753 240.048 251.644C238.719 251.453 237.459 250.973 236.236 250.424C235.148 249.936 234.271 249.165 233.201 248.7C230.94 247.713 228.424 247.629 226.017 247.261C225.397 247.165 224.717 247.011 224.365 246.471C224.087 246.04 224.089 245.452 224.253 244.945C224.537 244.068 225.116 243.247 225.835 242.659C225.944 243.116 226.353 243.427 226.807 243.427C226.875 243.427 226.945 243.419 227.015 243.404C228.127 243.169 229.268 243.092 230.443 243.092C230.444 243.092 230.445 243.092 230.447 243.092C230.453 243.092 230.459 243.092 230.465 243.092C232.269 243.092 234.147 243.279 236.075 243.311H236.208C236.736 243.309 237.336 243.267 237.943 243.053C238.541 242.849 239.191 242.408 239.527 241.668C239.719 241.249 239.791 240.808 239.791 240.387C239.783 239.404 239.436 238.484 239.028 237.657C238.616 236.833 238.127 236.117 237.731 235.621C236.621 234.267 234.927 233.657 233.219 233.305C231.503 232.963 229.716 232.907 228.332 232.905C228.149 232.905 227.975 232.907 227.807 232.908C226.044 232.943 224.596 233.469 223.311 233.469C223.289 233.469 223.268 233.469 223.247 233.469C223.036 233.469 222.828 233.457 222.621 233.429C220.56 233.163 218.289 232.4 216.585 231.271C216.208 231.023 215.911 230.775 215.731 230.517C215.536 230.24 215.227 230.092 214.913 230.092C214.713 230.092 214.513 230.152 214.337 230.276C214.309 230.295 214.283 230.316 214.257 230.339C214.167 230.176 214.084 230.005 214.009 229.825C213.641 228.951 213.792 227.713 214.673 227.356C214.919 227.257 215.185 227.24 215.452 227.24C215.515 227.24 215.576 227.241 215.639 227.241C216.284 227.252 216.929 227.257 217.576 227.257C222.992 227.257 228.428 226.912 233.868 226.568C237.216 226.356 240.564 226.144 243.911 226.012V251.721C243.371 251.775 242.827 251.804 242.276 251.804ZM227.561 241.279C226.707 240.767 225.921 239.047 226.085 238.003C226.215 237.177 226.8 235.941 227.379 234.925C227.523 234.915 227.665 234.908 227.807 234.908C227.813 234.908 227.82 234.908 227.827 234.908C227.988 234.907 228.157 234.905 228.332 234.905C228.343 234.905 228.355 234.905 228.365 234.905C229.683 234.905 231.344 234.969 232.825 235.267C233.024 235.305 233.219 235.349 233.408 235.397C232.903 236.307 232.265 237.137 231.528 237.843C231.209 238.147 231.128 238.621 231.327 239.016C231.5 239.357 231.847 239.565 232.219 239.565C232.276 239.565 232.333 239.56 232.391 239.551L232.649 239.528C232.652 239.528 232.656 239.528 232.66 239.528C233.104 239.528 233.604 239.735 233.988 240.088C234.313 240.383 234.587 240.793 234.791 241.268C233.377 241.203 231.927 241.092 230.447 241.092C229.496 241.092 228.533 241.139 227.561 241.279ZM236.953 241.252C236.927 241.205 236.897 241.16 236.864 241.119C236.575 240.199 236.093 239.305 235.336 238.611C234.997 238.303 234.608 238.044 234.184 237.859C234.597 237.316 234.965 236.737 235.285 236.131C235.656 236.351 235.959 236.6 236.171 236.873C236.477 237.253 236.908 237.885 237.239 238.551C237.576 239.215 237.797 239.927 237.791 240.387C237.791 240.585 237.757 240.729 237.709 240.833C237.639 240.975 237.548 241.064 237.273 241.169C237.181 241.203 237.073 241.231 236.953 241.252Z" fill="#AA849C"/>
<path d="M226.807 243.427C226.353 243.427 225.944 243.116 225.835 242.659C225.833 242.651 225.831 242.641 225.829 242.633C225.715 242.092 226.06 241.561 226.601 241.448C226.921 241.38 227.241 241.324 227.561 241.279C228.533 241.139 229.496 241.092 230.447 241.092C231.927 241.092 233.377 241.203 234.791 241.268C234.883 241.484 234.961 241.713 235.024 241.952C235.061 242.093 235.125 242.217 235.217 242.331L235.319 242.453C235.512 242.691 235.8 242.819 236.093 242.819C236.228 242.819 236.364 242.792 236.492 242.735C236.903 242.556 237.144 242.124 237.081 241.681L237.071 241.601C237.053 241.475 237.012 241.357 236.953 241.252C237.073 241.231 237.181 241.203 237.273 241.169C237.548 241.064 237.639 240.975 237.709 240.833C237.757 240.729 237.791 240.585 237.791 240.387C237.797 239.927 237.576 239.215 237.239 238.551C236.908 237.885 236.477 237.253 236.171 236.873C235.959 236.6 235.656 236.351 235.285 236.131C235.439 235.839 235.581 235.541 235.712 235.237C235.931 234.729 235.696 234.141 235.188 233.924C235.06 233.868 234.925 233.841 234.793 233.841C234.407 233.841 234.037 234.068 233.875 234.447C233.735 234.772 233.58 235.089 233.408 235.397C233.219 235.349 233.024 235.305 232.825 235.267C231.344 234.969 229.683 234.905 228.365 234.905C228.355 234.905 228.343 234.905 228.332 234.905C228.157 234.905 227.988 234.907 227.827 234.908C227.82 234.908 227.813 234.908 227.807 234.908C227.665 234.908 227.523 234.915 227.379 234.925C226.164 235.017 224.829 235.453 223.247 235.469C222.959 235.469 222.664 235.452 222.363 235.413C220.019 235.103 217.513 234.276 215.483 232.939C215.023 232.633 214.508 232.249 214.096 231.669C213.799 231.245 213.875 230.671 214.257 230.339C214.283 230.316 214.309 230.295 214.337 230.276C214.513 230.152 214.713 230.092 214.913 230.092C215.227 230.092 215.536 230.24 215.731 230.517C215.911 230.775 216.208 231.023 216.585 231.271C218.289 232.4 220.56 233.163 222.621 233.429C222.828 233.457 223.036 233.469 223.247 233.469C223.268 233.469 223.289 233.469 223.311 233.469C224.596 233.469 226.044 232.943 227.807 232.908C227.975 232.907 228.149 232.905 228.332 232.905C229.716 232.907 231.503 232.963 233.219 233.305C234.927 233.657 236.621 234.267 237.731 235.621C238.127 236.117 238.616 236.833 239.028 237.657C239.436 238.484 239.783 239.404 239.791 240.387C239.791 240.808 239.719 241.249 239.527 241.668C239.191 242.408 238.541 242.849 237.943 243.053C237.336 243.267 236.736 243.309 236.208 243.311H236.075C234.147 243.279 232.269 243.092 230.465 243.092C230.459 243.092 230.453 243.092 230.447 243.092C230.445 243.092 230.444 243.092 230.443 243.092C229.268 243.092 228.127 243.169 227.015 243.404C226.945 243.419 226.875 243.427 226.807 243.427Z" fill="#223856"/>
<path d="M236.093 242.819C235.8 242.819 235.512 242.691 235.319 242.453L235.217 242.331C235.125 242.217 235.061 242.093 235.024 241.952C234.961 241.713 234.883 241.484 234.791 241.268C234.587 240.793 234.313 240.383 233.988 240.088C233.604 239.735 233.104 239.528 232.66 239.528C232.656 239.528 232.652 239.528 232.649 239.528L232.391 239.551C232.333 239.56 232.276 239.565 232.219 239.565C231.847 239.565 231.5 239.357 231.327 239.016C231.128 238.621 231.209 238.147 231.528 237.843C232.265 237.137 232.903 236.307 233.408 235.397C233.58 235.089 233.735 234.772 233.875 234.447C234.037 234.068 234.407 233.841 234.793 233.841C234.925 233.841 235.06 233.868 235.188 233.924C235.696 234.141 235.931 234.729 235.712 235.237C235.581 235.541 235.439 235.839 235.285 236.131C234.965 236.737 234.597 237.316 234.184 237.859C234.608 238.044 234.997 238.303 235.336 238.611C236.093 239.305 236.575 240.199 236.864 241.119C236.897 241.16 236.927 241.205 236.953 241.252C237.012 241.357 237.053 241.475 237.071 241.601L237.081 241.681C237.144 242.124 236.903 242.556 236.492 242.735C236.364 242.792 236.228 242.819 236.093 242.819Z" fill="#223856"/>
<path d="M347.723 390.839L288.779 366.425L288.523 367.043L265.845 357.649L266.1 357.035L243.911 347.844V283.859L347.723 333.249V390.839ZM209.592 349.519V334.035L230.339 345.704L209.592 349.519Z" fill="#F48477"/>
<path d="M347.723 499.831L209.592 422.141V350.873L232.155 346.725L243.911 353.337V349.287L265.591 358.265L265.845 357.649L288.523 367.043L288.268 367.657L347.723 392.283V403.559C346.88 404.5 346.056 405.459 345.235 406.417C343.887 407.987 342.224 409.317 340.473 410.541L296.577 390.353C296.445 390.292 296.303 390.261 296.16 390.261C296.076 390.261 295.992 390.272 295.909 390.293L257.528 400.192C257.095 400.304 256.801 400.684 256.779 401.108L253.381 401.957L253.452 406.736L347.723 455.519V499.831Z" fill="#F58C7F"/>
<path d="M347.723 455.519L253.452 406.736L253.381 401.957L347.723 449.163V455.519Z" fill="#B5606B"/>
<path d="M347.723 449.163L253.381 401.957L256.779 401.108C256.773 401.207 256.784 401.309 256.809 401.411C256.925 401.861 257.332 402.161 257.777 402.161C257.86 402.161 257.944 402.151 258.028 402.129L296.064 392.319L338.527 411.847C337.684 412.395 336.841 412.929 336.02 413.464C335.832 413.587 335.641 413.711 335.452 413.837L327.16 409.943C324.997 411.024 322.808 412.047 320.599 413.027L329.233 417.208C330.808 416.373 332.411 415.604 334.052 414.936C333.752 415.231 333.485 415.556 333.275 415.925C333.049 416.321 332.913 416.784 332.881 417.247C332.813 417.232 332.744 417.225 332.675 417.225C332.367 417.225 332.064 417.367 331.868 417.633C331.828 417.688 331.793 417.745 331.765 417.805C331.552 417.911 331.337 418.017 331.124 418.125L331.688 418.399C331.732 418.644 331.865 418.872 332.081 419.031C333.224 419.871 334.556 420.309 335.908 420.443L340.111 422.48C342.259 421.319 344.419 420.181 346.592 419.069L344.123 417.909C344.967 417.339 345.767 416.72 346.536 416.104C346.683 415.987 346.787 415.837 346.848 415.675L347.723 416.076V420.368C345.792 421.353 343.869 422.352 341.959 423.375L347.723 426.167V428.941L345.521 427.908C345.692 428.26 345.647 428.695 345.189 428.915C343.257 429.845 341.304 430.735 339.356 431.632L347.723 435.685V439.107L343.412 436.993C341.289 437.84 339.18 438.717 337.084 439.629L345.681 443.943C346.361 443.688 347.041 443.436 347.723 443.185V449.163ZM333.455 432.113C331.308 432.852 329.215 433.712 327.152 434.647L335.137 438.652C337.209 437.737 339.297 436.861 341.396 436.007L333.455 432.113ZM322.396 426.695C320.408 427.532 318.432 428.395 316.469 429.285L325.244 433.689C327.251 432.751 329.28 431.865 331.355 431.085L322.396 426.695ZM336.82 423.823C334.539 424.917 332.252 426 329.964 427.083L337.419 430.695C339.735 429.631 342.051 428.573 344.345 427.468L344.499 427.428L336.82 423.823ZM311.821 421.512C309.681 422.113 307.615 422.908 305.6 423.832L314.549 428.323C316.493 427.431 318.451 426.568 320.416 425.724L311.821 421.512ZM326.919 419.172L326.677 419.352C324.521 420.359 322.364 421.356 320.205 422.355L328.039 426.151C330.316 425.072 332.591 423.989 334.864 422.904L326.919 419.172ZM301.937 416.667C299.819 417.335 297.72 418.064 295.636 418.833L303.703 422.88C305.625 421.949 307.583 421.105 309.604 420.425L301.937 416.667ZM314.908 413.531C312.76 414.701 310.519 415.669 308.24 416.559L318.265 421.415C320.52 420.375 322.772 419.331 325.021 418.281L314.908 413.531ZM291.665 411.633C289.732 412.389 287.805 413.165 285.879 413.937L293.604 417.815C295.649 417.039 297.709 416.301 299.785 415.612L291.665 411.633ZM305.888 409.295C303.54 410.127 301.233 411.06 298.952 412.057L306.175 415.557C308.493 414.689 310.78 413.747 312.985 412.628L305.888 409.295ZM280.779 406.297C278.711 406.845 276.689 407.543 274.699 408.328L283.885 412.937C285.803 412.167 287.724 411.403 289.647 410.644L280.779 406.297ZM317.067 405.204C314.881 406.161 312.712 407.155 310.548 408.157L318.641 412.079C320.856 411.105 323.051 410.092 325.225 409.035L317.067 405.204ZM297.253 405.239L296.979 405.4C294.711 406.177 292.457 406.993 290.207 407.821L297.003 411.113C299.232 410.116 301.479 409.161 303.763 408.296L297.253 405.239ZM272.06 402.024L265.629 403.777L272.688 407.32C274.608 406.517 276.56 405.811 278.544 405.203L272.06 402.024ZM308.716 401.281C306.368 402.135 304.02 402.984 301.681 403.863L308.607 407.216C310.756 406.219 312.911 405.232 315.076 404.268L308.716 401.281ZM288.128 400.953C286.003 401.884 283.873 402.807 281.741 403.72L288.124 406.813C290.468 405.943 292.819 405.091 295.18 404.264L288.128 400.953ZM301.303 397.8C298.815 398.563 296.323 399.316 293.828 400.057L299.629 402.868C301.939 401.98 304.26 401.124 306.587 400.28L301.303 397.8ZM283.099 398.592L275.456 400.676L279.764 402.764C281.888 401.855 284.009 400.937 286.127 400.013L283.099 398.592ZM295.064 394.869L287.421 396.953L291.603 398.98C294.084 398.241 296.559 397.484 299.036 396.735L295.064 394.869Z" fill="#F58C7F"/>
<path d="M345.681 443.943L337.084 439.629C339.18 438.717 341.289 437.84 343.412 436.993L347.723 439.107V443.185C347.041 443.436 346.361 443.688 345.681 443.943Z" fill="#B5606B"/>
<path d="M303.703 422.88L295.636 418.833C297.72 418.064 299.819 417.335 301.937 416.667L309.604 420.425C307.583 421.105 305.625 421.949 303.703 422.88Z" fill="#B5606B"/>
<path d="M272.688 407.32L265.629 403.777L272.06 402.024L278.544 405.203C276.56 405.811 274.608 406.517 272.688 407.32Z" fill="#B5606B"/>
<path d="M283.885 412.937L274.699 408.328C276.689 407.543 278.711 406.845 280.779 406.297L289.647 410.644C287.724 411.403 285.803 412.167 283.885 412.937Z" fill="#B5606B"/>
<path d="M293.604 417.815L285.879 413.937C287.805 413.165 289.732 412.389 291.665 411.633L299.785 415.612C297.709 416.301 295.649 417.039 293.604 417.815Z" fill="#B5606B"/>
<path d="M314.549 428.323L305.6 423.832C307.615 422.908 309.681 422.113 311.821 421.512L320.416 425.724C318.451 426.568 316.493 427.431 314.549 428.323Z" fill="#B5606B"/>
<path d="M325.244 433.689L316.469 429.285C318.432 428.395 320.408 427.532 322.396 426.695L331.355 431.085C329.28 431.865 327.251 432.751 325.244 433.689Z" fill="#B5606B"/>
<path d="M335.137 438.652L327.152 434.647C329.215 433.712 331.308 432.852 333.455 432.113L341.396 436.007C339.297 436.861 337.209 437.737 335.137 438.652Z" fill="#B5606B"/>
<path d="M279.764 402.764L275.456 400.676L283.099 398.592L286.127 400.013C284.009 400.937 281.888 401.855 279.764 402.764Z" fill="#B5606B"/>
<path d="M288.124 406.813L281.741 403.72C283.873 402.807 286.003 401.884 288.128 400.953L295.18 404.264C292.819 405.091 290.468 405.943 288.124 406.813Z" fill="#B5606B"/>
<path d="M297.003 411.113L290.207 407.821C292.457 406.993 294.711 406.177 296.979 405.4L297.253 405.239L303.763 408.296C301.479 409.161 299.232 410.116 297.003 411.113Z" fill="#B5606B"/>
<path d="M306.175 415.557L298.952 412.057C301.233 411.06 303.54 410.127 305.888 409.295L312.985 412.628C310.78 413.747 308.493 414.689 306.175 415.557Z" fill="#B5606B"/>
<path d="M318.265 421.415L308.24 416.559C310.519 415.669 312.76 414.701 314.908 413.531L325.021 418.281C322.772 419.331 320.52 420.375 318.265 421.415Z" fill="#B5606B"/>
<path d="M328.039 426.151L320.205 422.355C322.364 421.356 324.521 420.359 326.677 419.352L326.919 419.172L334.864 422.904C332.591 423.989 330.316 425.072 328.039 426.151Z" fill="#B5606B"/>
<path d="M337.419 430.695L329.964 427.083C332.252 426 334.539 424.917 336.82 423.823L344.499 427.428L344.345 427.468C342.051 428.573 339.735 429.631 337.419 430.695Z" fill="#B5606B"/>
<path d="M347.723 435.685L339.356 431.632C341.304 430.735 343.257 429.845 345.189 428.915C345.647 428.695 345.692 428.26 345.521 427.908L347.723 428.941V435.685Z" fill="#B5606B"/>
<path d="M291.603 398.98L287.421 396.953L295.064 394.869L299.036 396.735C296.559 397.484 294.084 398.241 291.603 398.98Z" fill="#B5606B"/>
<path d="M299.629 402.868L293.828 400.057C296.323 399.316 298.815 398.563 301.303 397.8L306.587 400.28C304.26 401.124 301.939 401.98 299.629 402.868Z" fill="#B5606B"/>
<path d="M308.607 407.216L301.681 403.863C304.02 402.984 306.368 402.135 308.716 401.281L315.076 404.268C312.911 405.232 310.756 406.219 308.607 407.216Z" fill="#B5606B"/>
<path d="M318.641 412.079L310.548 408.157C312.712 407.155 314.881 406.161 317.067 405.204L325.225 409.035C323.051 410.092 320.856 411.105 318.641 412.079Z" fill="#B5606B"/>
<path d="M329.233 417.208L320.599 413.027C322.808 412.047 324.997 411.024 327.16 409.943L335.452 413.837C334.956 414.171 334.471 414.524 334.052 414.936C332.411 415.604 330.808 416.373 329.233 417.208Z" fill="#B5606B"/>
<path d="M347.723 426.167L341.959 423.375C343.869 422.352 345.792 421.353 347.723 420.368V426.167Z" fill="#B5606B"/>
<path d="M340.111 422.48L335.908 420.443C336.216 420.473 336.527 420.488 336.835 420.488C337.903 420.488 338.968 420.313 339.969 419.999C341.491 419.519 342.856 418.767 344.123 417.909L346.592 419.069C344.419 420.181 342.259 421.319 340.111 422.48ZM331.688 418.399L331.124 418.125C331.337 418.017 331.552 417.911 331.765 417.805C331.679 417.993 331.653 418.201 331.688 418.399Z" fill="#B5606B"/>
<path d="M347.723 416.076L346.848 415.675C346.941 415.424 346.932 415.14 346.813 414.892C347.129 414.621 347.435 414.345 347.723 414.067V416.076ZM338.527 411.847L296.064 392.319L258.028 402.129C257.944 402.151 257.86 402.161 257.777 402.161C257.332 402.161 256.925 401.861 256.809 401.411C256.784 401.309 256.773 401.207 256.779 401.108C256.801 400.684 257.095 400.304 257.528 400.192L295.909 390.293C295.992 390.272 296.076 390.261 296.16 390.261C296.303 390.261 296.445 390.292 296.577 390.353L340.473 410.541C339.832 410.989 339.179 411.423 338.527 411.847Z" fill="#802F24"/>
<path d="M336.837 418.488C336.836 418.488 336.836 418.488 336.835 418.488C335.509 418.488 334.253 418.148 333.265 417.42C333.148 417.333 333.016 417.276 332.881 417.247C332.913 416.784 333.049 416.321 333.275 415.925C333.485 415.556 333.752 415.231 334.052 414.936C334.471 414.524 334.956 414.171 335.452 413.837C335.641 413.711 335.832 413.587 336.02 413.464C336.841 412.929 337.684 412.395 338.527 411.847C339.179 411.423 339.832 410.989 340.473 410.541C342.224 409.317 343.887 407.987 345.235 406.417C346.056 405.459 346.88 404.5 347.723 403.559V414.067C347.435 414.345 347.129 414.621 346.813 414.892C346.781 414.824 346.74 414.759 346.692 414.697C346.495 414.452 346.204 414.323 345.911 414.323C345.691 414.323 345.471 414.395 345.285 414.543C343.409 416.049 341.485 417.429 339.369 418.091C338.555 418.348 337.684 418.488 336.837 418.488Z" fill="#F46C59"/>
<path d="M336.835 420.488C336.527 420.488 336.216 420.473 335.908 420.443C334.556 420.309 333.224 419.871 332.081 419.031C331.865 418.872 331.732 418.644 331.688 418.399C331.653 418.201 331.679 417.993 331.765 417.805C331.793 417.745 331.828 417.688 331.868 417.633C332.064 417.367 332.367 417.225 332.675 417.225C332.744 417.225 332.813 417.232 332.881 417.247C333.016 417.276 333.148 417.333 333.265 417.42C334.253 418.148 335.509 418.488 336.835 418.488C336.836 418.488 336.836 418.488 336.837 418.488C337.684 418.488 338.555 418.348 339.369 418.091C341.485 417.429 343.409 416.049 345.285 414.543C345.471 414.395 345.691 414.323 345.911 414.323C346.204 414.323 346.495 414.452 346.692 414.697C346.74 414.759 346.781 414.824 346.813 414.892C346.932 415.14 346.941 415.424 346.848 415.675C346.787 415.837 346.683 415.987 346.536 416.104C345.767 416.72 344.967 417.339 344.123 417.909C342.856 418.767 341.491 419.519 339.969 419.999C338.968 420.313 337.903 420.488 336.835 420.488Z" fill="#802F24"/>
<path d="M265.591 358.265L243.911 349.287V347.844L266.1 357.035L265.845 357.649L265.591 358.265ZM209.592 350.873V349.519L230.339 345.704L232.155 346.725L209.592 350.873Z" fill="#802F24"/>
<path d="M347.723 392.283L288.268 367.657L288.523 367.043L288.779 366.425L347.723 390.839V392.283Z" fill="#802F24"/>
<path d="M243.911 347.844L236.16 344.633L230.339 345.704L209.592 334.035V267.531L243.911 283.859V347.844Z" fill="#CA6E70"/>
<path d="M243.911 353.337L232.155 346.725L236.013 346.016L243.911 349.287V353.337Z" fill="#CC7273"/>
<path d="M243.911 349.287L236.013 346.016L232.155 346.725L230.339 345.704L236.16 344.633L243.911 347.844V349.287Z" fill="#934344"/>
<path d="M302.376 428.147L276 343.535C275.669 342.475 274.724 341.733 273.615 341.667C272.505 341.6 271.477 342.221 271.021 343.236L245.153 400.799C244.549 402.143 245.149 403.721 246.492 404.324C247.836 404.928 249.415 404.329 250.019 402.985L273.003 351.84L297.284 429.735C297.723 431.14 299.217 431.924 300.624 431.487C302.029 431.048 302.813 429.553 302.376 428.147Z" fill="white"/>
<path d="M293.855 403.148L256.136 383.62C254.828 382.944 253.219 383.455 252.541 384.763C251.864 386.071 252.376 387.68 253.684 388.357L291.401 407.884C292.709 408.561 294.319 408.049 294.996 406.741C295.673 405.435 295.161 403.825 293.855 403.148Z" fill="white"/>
<path d="M148.538 257.205C144.559 253.991 144.207 252.109 144.461 235.726C144.795 215.247 143.599 208.603 139.307 206.977C132.468 204.331 130.92 209.407 130.92 234.531C130.92 249.405 130.155 258.792 128.96 258.792C127.764 258.792 127 249.405 127 234.55C127 213.013 127.451 209.759 131.057 205.154C133.957 201.489 136.956 200 141.443 200C151.418 200 152.477 202.469 152.477 225.868C152.477 244.643 152.927 247.484 156.533 251.09C159.747 254.304 161.158 254.657 163.392 252.795C165.529 251.031 166.195 245.054 166.195 227.436C166.195 211.347 166.94 203.821 168.644 202.489C169.997 201.431 178.384 200.509 187.282 200.451C201.254 200.353 203.743 200.862 205.468 204.076C206.624 206.212 207.232 218.774 206.918 233.786C206.389 259.047 206.252 259.791 201.96 260.399C197.609 261.026 197.551 260.752 197.531 237.862C197.492 209.857 196.571 205.468 190.927 206.271C186.948 206.839 186.752 207.976 186.439 233.002C186.243 247.367 185.635 259.615 185.047 260.183C184.479 260.771 182.637 260.713 180.971 260.066C178.463 259.106 177.953 254.579 177.953 233.315C177.953 212.052 177.444 207.525 174.935 206.565C173.269 205.918 171.584 205.722 171.192 206.134C170.8 206.526 170.173 216.599 169.801 228.514C169.272 245.074 168.311 251.404 165.646 255.46C161.57 261.692 154.907 262.378 148.538 257.205Z" fill="white"/>
</g>
<defs>
<clipPath id="clip0_2_2">
<rect width="666.667" height="666.667" fill="white"/>
</clipPath>
</defs>
</svg>
