<svg xmlns="http://www.w3.org/2000/svg" width="500" height="500" viewBox="0 0 500 500">
<g>
<path d="M 395.02,312.05 L 395.02,312.00 L 398.03,312.00 M 164.32,311.34 L 164.85,311.38 L 165.27,311.41 L 166.19,311.46 L 166.80,311.48 L 168.11,311.53 L 168.89,311.55 L 170.55,311.59 L 171.51,311.61 L 173.51,311.65 L 174.63,311.67 L 176.94,311.71 L 178.20,311.73 L 180.81,311.77 L 182.21,311.78 L 188.10,311.85 L 191.40,311.87 L 198.22,311.92 L 201.93,311.94 L 209.52,311.97 L 213.55,311.98 L 221.74,312.00 L 221.73,312.00 L 213.54,311.98 L 209.51,311.97 L 201.92,311.94 L 198.22,311.92 L 191.39,311.87 L 188.09,311.85 L 182.21,311.78 L 180.81,311.77 L 178.20,311.73 L 176.94,311.71 L 174.62,311.67 L 173.51,311.65 L 171.51,311.61 L 170.55,311.59 L 168.89,311.55 L 168.10,311.53 L 166.80,311.48 L 166.19,311.46 L 165.27,311.41 L 164.85,311.38 L 164.32,311.34 L 164.11,311.31 L 164.00,311.26 L 164.11,311.31 M 109.73,311.93 L 111.89,311.88 L 112.87,311.85 L 114.77,311.78 L 115.61,311.74 L 117.20,311.65 L 117.86,311.60 L 119.09,311.51 L 119.56,311.45 L 120.38,311.34 L 120.63,311.28 L 121.00,311.16 L 121.00,312.00 L 102.50,312.00 M 234.76,312.00 L 240.19,311.99 L 242.71,311.99 L 247.62,311.98 L 249.89,311.97 L 254.30,311.95 L 256.33,311.94 L 260.27,311.92 L 262.06,311.91 L 265.54,311.88 L 267.12,311.86 L 270.17,311.83 L 271.54,311.81 L 274.18,311.77 L 275.35,311.74 L 277.60,311.70 L 278.59,311.67 L 280.47,311.61 L 281.29,311.58 L 282.83,311.51 L 283.48,311.48 L 284.70,311.40 L 285.19,311.36 L 286.12,311.28 L 286.47,311.23 L 287.12,311.14 L 287.34,311.09 L 287.99,310.88 L 287.98,312.00 L 226.00,312.00 M 287.00,223.50 L 286.79,223.92 L 286.67,224.49 L 286.61,224.91 L 286.50,225.83 L 286.45,226.43 L 286.36,227.70 L 286.32,228.46 L 286.24,230.05 L 286.21,230.97 L 286.15,232.88 L 286.12,233.94 L 286.08,236.14 L 286.06,237.35 L 286.04,239.82 L 286.03,241.16 L 286.01,246.76 L 286.03,249.91 L 286.09,256.43 L 286.14,259.99 L 286.26,267.30 L 286.35,271.20 L 286.54,279.16 L 286.66,283.34 L 286.85,289.43 L 286.94,292.14 L 287.04,294.78 L 287.09,295.99 L 287.18,298.32 L 287.23,299.34 L 287.31,301.30 L 287.36,302.12 L 287.44,303.64 L 287.48,304.21 L 287.55,305.23 L 287.58,305.54 L 287.64,306.00 L 287.66,306.00 L 287.69,305.78 L 287.72,305.43 L 287.73,305.15 L 287.77,303.78 L 287.79,302.72 L 287.83,300.37 L 287.85,298.88 L 287.88,295.68 L 287.90,293.79 L 287.93,289.85 L 287.94,287.64 L 287.96,283.06 L 287.97,280.58 L 287.99,275.49 L 287.99,272.79 L 288.00,267.30 L 288.00,264.44 L 287.98,254.78 L 287.96,248.98 L 287.94,246.41 L 287.89,241.46 L 287.86,239.32 L 287.79,235.24 L 287.75,233.52 L 287.66,230.31 L 287.61,229.04 L 287.50,226.70 L 287.43,225.86 L 287.31,224.41 L 287.23,224.02 L 287.08,223.45 M 155.14,284.52 L 155.20,288.59 L 155.24,290.38 L 155.31,293.79 L 155.36,295.22 L 155.44,297.87 L 155.49,298.88 L 155.59,300.66 L 155.64,301.19 L 155.70,301.66 L 155.72,301.79 L 155.77,301.98 L 155.74,302.00 L 155.71,302.00 L 155.66,301.79 L 155.64,301.65 L 155.59,301.16 L 155.54,300.61 L 155.45,298.76 L 155.41,297.72 L 155.33,294.97 L 155.29,293.50 L 155.22,289.96 L 155.18,288.10 L 155.13,283.88 L 155.11,282.45 M 155.11,282.39 L 155.10,281.70 L 155.09,280.21 M 174.24,284.26 L 171.80,286.70 L 167.29,291.15 L 166.21,292.21 L 164.20,294.16 L 163.23,295.11 L 161.48,296.79 L 161.27,296.99 L 161.60,296.60 L 162.11,295.85 L 162.55,295.15 L 162.65,294.89 L 162.78,294.44 L 162.69,294.35 L 161.67,294.37 L 160.68,294.88 L 160.17,295.34 L 158.68,296.32 L 157.85,296.52 L 157.67,296.34 L 157.53,295.47 L 157.45,294.20 L 157.41,293.25 L 157.33,291.16 L 157.30,289.83 L 157.23,287.01 L 157.20,285.35 L 157.14,281.90 L 157.11,279.97 L 157.07,275.99 L 157.05,273.84 L 157.02,269.42 L 157.01,267.09 L 157.00,262.35 L 157.00,259.89 L 156.98,251.81 L 156.96,246.88 L 156.93,244.65 L 156.88,240.37 L 156.85,238.47 L 156.78,234.86 L 156.74,233.30 L 156.65,230.38 L 156.60,229.18 L 156.49,226.98 L 156.42,226.15 L 156.30,224.69 L 156.23,224.24 L 156.08,223.55 L 156.00,223.50 L 155.77,223.98 L 155.63,224.94 L 155.57,225.74 L 155.45,227.54 L 155.39,228.76 L 155.29,231.39 L 155.25,233.02 L 155.17,236.49 L 155.14,238.53 L 155.08,242.83 L 155.06,245.28 L 155.03,250.39 L 155.02,253.25 L 155.00,259.18 L 155.00,220.00 L 137.77,220.00 L 141.91,219.99 L 144.27,219.96 L 145.26,219.94 L 147.11,219.90 L 147.87,219.86 L 149.27,219.79 L 149.82,219.74 L 150.82,219.63 L 151.18,219.56 L 151.82,219.42 L 152.02,219.33 L 152.35,219.15 L 152.42,219.04 L 152.48,218.81 L 152.43,218.67 L 151.55,218.05 L 150.98,217.90 L 150.59,217.84 L 149.75,217.74 L 149.21,217.71 L 148.05,217.65 L 147.34,217.64 L 145.82,217.62 L 144.92,217.63 L 143.01,217.66 L 141.90,217.68 L 139.56,217.74 L 138.21,217.78 L 132.81,218.02 L 129.58,218.23 L 128.25,218.35 L 126.97,218.47 L 126.43,218.54 L 125.41,218.66 L 125.00,218.73 L 124.27,218.86 L 124.02,218.92 L 123.62,219.05 L 123.55,219.11 L 123.51,219.24 L 123.63,219.30 L 123.98,219.42 L 124.28,219.47 L 124.98,219.57 L 125.45,219.62 L 126.48,219.71 L 127.11,219.75 L 128.44,219.83 L 129.20,219.86 L 130.81,219.91 L 131.71,219.93 L 135.54,220.00 L 121.00,220.00 L 121.00,311.10 L 120.65,310.91 L 120.09,310.79 L 119.67,310.72 L 118.71,310.60 L 118.10,310.54 L 116.80,310.42 L 116.03,310.36 L 112.67,310.15 L 110.65,310.06 L 106.41,309.90 L 104.08,309.85 L 97.45,309.65 L 93.50,309.47 L 91.90,309.36 L 90.36,309.26 L 89.71,309.20 L 88.48,309.09 L 88.00,309.03 L 87.14,308.92 L 86.86,308.86 L 86.41,308.74 L 86.35,308.69 L 86.27,308.39 L 86.22,307.99 L 86.19,307.68 L 86.10,306.22 L 86.05,305.12 L 85.97,302.70 L 85.93,301.18 L 85.86,297.92 L 85.84,296.01 L 85.78,292.04 L 85.76,289.81 L 85.73,285.23 L 85.72,282.74 L 85.71,277.66 L 85.71,274.98 L 85.72,269.52 L 85.73,266.69 L 85.74,249.31 L 85.72,243.52 L 85.70,240.70 L 85.66,235.12 L 85.63,232.46 L 85.57,227.24 L 85.54,224.83 L 85.46,220.14 L 85.42,218.04 L 85.33,214.04 L 85.28,212.36 L 85.18,209.20 L 85.12,208.00 L 85.02,205.79 L 84.95,204.61 L 84.91,204.16 L 84.85,203.36 L 84.82,203.12 L 84.76,202.72 L 84.74,202.68 L 84.68,202.70 L 84.66,202.87 L 84.61,203.32 L 84.59,203.71 L 84.54,204.59 L 84.52,205.20 L 84.48,206.54 L 84.46,207.38 L 84.43,209.17 L 84.41,210.24 L 84.38,212.51 L 84.36,213.82 L 84.33,216.57 L 84.32,218.14 L 84.29,221.38 L 84.28,223.19 L 84.26,226.95 L 84.25,229.02 L 84.23,233.29 L 84.22,235.62 L 84.20,240.42 L 84.19,243.03 L 84.17,248.37 L 84.16,251.25 L 84.00,312.00 L 84.00,185.69 L 84.04,187.07 L 84.12,187.58 L 84.21,187.65 L 84.42,187.67 L 84.59,187.50 L 84.97,187.06 L 85.25,186.68 L 85.91,186.15 L 86.69,185.86 L 87.34,185.74 L 88.86,185.52 L 90.00,185.42 L 91.21,185.33 L 91.93,185.29 L 93.45,185.22 L 94.34,185.18 L 96.21,185.11 L 97.28,185.08 L 99.54,185.02 L 100.82,185.00 L 103.50,184.94 L 105.01,184.92 L 108.15,184.87 L 109.90,184.85 L 113.54,184.81 L 115.56,184.78 L 119.74,184.74 L 122.04,184.72 L 126.79,184.68 L 129.39,184.66 L 134.76,184.62 L 137.69,184.60 L 145.57,184.54 L 150.40,184.51 L 152.62,184.50 L 156.92,184.48 L 158.88,184.47 L 162.68,184.46 L 164.40,184.46 L 167.73,184.45 L 169.23,184.45 L 172.12,184.46 L 173.41,184.47 L 175.89,184.49 L 176.98,184.50 L 179.08,184.53 L 180.00,184.55 L 181.75,184.59 L 182.50,184.62 L 183.93,184.67 L 184.53,184.70 L 186.67,184.85 L 187.38,184.94 L 188.57,185.14 L 188.89,185.27 L 189.38,185.54 L 189.44,185.70 L 189.55,186.78 L 189.62,188.25 L 189.66,189.32 L 189.72,191.68 L 189.75,193.16 L 189.81,196.29 L 189.83,198.12 L 189.88,201.92 L 189.90,204.04 L 189.94,208.40 L 189.96,210.75 L 189.98,215.56 L 189.99,218.10 L 190.00,223.25 L 190.00,225.92 L 190.01,233.71 L 190.04,238.68 L 190.05,241.01 L 190.09,245.57 L 190.11,247.66 L 190.17,251.69 L 190.20,253.48 L 190.26,256.89 L 190.29,258.32 L 190.37,260.99 L 190.41,262.02 L 190.49,263.85 L 190.53,264.41 L 190.62,265.29 L 190.67,265.33 L 191.05,265.68 L 191.24,265.80 L 191.57,266.00 L 191.67,266.00 L 191.70,265.78 L 191.72,265.43 L 191.73,265.15 L 191.78,263.78 L 191.80,262.73 L 191.83,260.38 L 191.85,258.89 L 191.89,255.69 L 191.90,253.81 L 191.93,249.87 L 191.94,247.66 L 191.97,243.09 L 191.97,240.61 L 191.99,235.53 L 191.99,232.84 L 192.00,227.35 L 192.00,266.52 M 317.45,217.15 L 316.11,217.26 L 315.21,217.38 L 312.69,217.62 L 310.44,217.76 L 309.14,217.82 L 303.57,218.00 L 300.86,218.00 L 296.83,218.07 L 294.58,218.19 L 293.72,218.28 L 292.17,218.47 L 291.71,218.59 L 291.00,218.85 L 291.00,219.00 L 291.09,219.15 L 291.26,219.22 L 291.69,219.36 L 292.03,219.42 L 292.79,219.54 L 293.28,219.59 L 294.35,219.69 L 294.99,219.73 L 296.35,219.81 L 297.14,219.85 L 298.78,219.91 L 299.70,219.93 L 303.64,220.00 L 305.97,220.00 L 310.45,219.99 L 312.92,219.97 L 313.93,219.95 L 315.80,219.90 L 316.53,219.87 L 317.87,219.79 L 318.36,219.73 L 319.25,219.61 L 319.55,219.53 L 320.05,219.36 L 320.19,219.25 L 320.46,218.75 L 320.32,218.38 L 319.81,217.61 L 319.31,217.29 L 318.92,217.22 L 318.06,217.12 M 378.77,216.91 L 375.35,216.94 L 373.70,217.01 L 370.47,217.18 L 369.04,217.31 L 366.33,217.61 L 365.29,217.81 L 364.32,218.01 L 363.93,218.13 L 363.23,218.37 L 363.00,218.50 L 362.50,218.80 L 362.35,218.93 L 362.13,219.17 L 362.15,219.27 L 362.28,219.45 L 362.51,219.52 L 363.08,219.65 L 363.55,219.70 L 364.63,219.79 L 365.38,219.83 L 367.04,219.88 L 368.11,219.90 L 370.43,219.94 L 371.85,219.95 L 374.90,219.96 L 376.72,219.96 L 381.44,219.96 L 384.06,219.95 L 385.15,219.93 L 387.16,219.89 L 387.96,219.86 L 389.43,219.78 L 389.98,219.73 L 390.98,219.62 L 391.33,219.54 L 391.92,219.38 L 392.10,219.28 L 392.37,219.07 L 392.41,218.94 L 392.42,218.66 L 392.36,218.50 L 391.94,218.13 L 391.40,217.90 L 391.02,217.81 L 389.20,217.44 L 387.95,217.31 L 385.25,217.08 L 383.69,217.01 L 380.46,216.91 M 251.00,184.50 L 251.10,185.29 L 251.26,185.56 L 251.64,186.00 L 251.88,186.00 L 252.86,185.56 L 253.66,184.91 L 254.00,184.50 L 254.55,183.74 L 254.68,183.39 L 254.62,183.28 L 254.40,183.10 L 254.15,183.06 L 253.57,183.00 L 432.01,183.00 L 431.76,247.25 L 431.50,311.50 L 428.82,311.54 L 429.38,311.48 L 429.78,311.42 L 430.49,311.29 L 430.69,311.22 L 431.00,311.08 L 431.00,311.00 L 430.88,310.33 L 430.67,310.19 L 430.45,310.14 L 429.93,310.04 L 429.52,310.01 L 428.57,309.95 L 427.89,309.93 L 426.39,309.91 L 425.39,309.90 L 423.21,309.89 L 421.83,309.89 L 418.84,309.89 L 417.00,309.89 L 412.19,309.84 L 409.03,309.76 L 407.59,309.69 L 404.84,309.56 L 403.73,309.47 L 402.68,309.39 L 402.24,309.34 L 401.43,309.25 L 401.13,309.20 L 396.76,308.50 L 396.88,266.81 L 396.89,257.28 L 396.88,251.50 L 396.87,248.91 L 396.83,243.91 L 396.81,241.71 L 396.75,237.51 L 396.71,235.72 L 396.63,232.34 L 396.59,230.97 L 396.48,228.44 L 396.42,227.50 L 396.30,225.83 L 396.23,225.33 L 396.08,224.55 L 396.00,224.50 L 395.77,225.05 L 395.63,226.13 L 395.57,227.01 L 395.45,229.02 L 395.39,230.37 L 395.29,233.31 L 395.25,235.13 L 395.17,238.99 L 395.14,241.27 L 395.08,246.05 L 395.06,248.79 L 395.03,254.49 L 395.02,257.68 L 395.00,264.29 L 395.00,308.49 L 394.76,266.27 L 394.50,220.50 L 360.00,219.95 L 360.00,266.33 L 359.98,257.18 L 359.96,251.37 L 359.94,248.66 L 359.90,243.38 L 359.87,240.97 L 359.81,236.34 L 359.78,234.30 L 359.71,230.43 L 359.67,228.82 L 359.59,225.84 L 359.54,224.73 L 359.50,223.68 L 359.47,223.26 L 359.43,222.48 L 359.40,222.20 L 359.35,221.71 L 359.33,221.58 L 359.28,221.39 L 359.25,221.42 L 359.17,221.72 L 359.12,222.14 L 359.09,222.46 L 358.98,224.00 L 358.92,225.15 L 358.80,227.70 L 358.75,229.32 L 358.63,232.76 L 358.57,234.77 L 358.46,238.98 L 358.41,241.33 L 358.30,246.19 L 358.25,248.82 L 358.16,254.20 L 358.12,257.05 L 358.03,262.83 L 358.00,265.83 L 357.50,309.50 L 343.00,309.50 L 337.23,309.44 L 333.72,309.35 L 332.25,309.29 L 330.83,309.22 L 330.21,309.18 L 329.05,309.10 L 328.57,309.06 L 327.71,308.97 L 327.40,308.93 L 326.87,308.83 L 326.75,308.78 L 326.21,308.36 L 325.91,307.81 L 325.79,307.32 L 325.57,306.17 L 325.48,305.27 L 325.40,304.32 L 325.36,303.75 L 325.29,302.54 L 325.26,301.82 L 325.21,300.32 L 325.19,299.45 L 325.14,297.62 L 325.12,296.58 L 325.09,294.39 L 325.08,293.15 L 325.05,290.58 L 325.04,289.13 L 325.03,286.14 L 325.02,284.47 L 325.01,281.01 L 325.01,279.10 L 325.00,275.16 L 325.00,272.99 L 325.00,268.53 L 325.00,266.09 L 324.98,256.55 L 324.96,250.75 L 324.93,248.14 L 324.88,243.11 L 324.85,240.90 L 324.78,236.66 L 324.74,234.86 L 324.65,231.44 L 324.60,230.06 L 324.49,227.49 L 324.43,226.54 L 324.30,224.85 L 324.23,224.34 L 324.08,223.55 L 324.00,223.50 L 323.77,224.06 L 323.63,225.15 L 323.56,226.05 L 323.45,228.09 L 323.39,229.46 L 323.29,232.43 L 323.25,234.27 L 323.17,238.18 L 323.14,240.49 L 323.08,245.33 L 323.06,248.09 L 323.03,253.86 L 323.02,257.08 L 323.00,263.76 L 323.00,219.95 L 288.50,220.50 L 287.99,310.74 L 287.48,310.42 L 286.57,310.23 L 285.78,310.15 L 283.97,310.01 L 282.68,309.96 L 281.32,309.90 L 280.53,309.88 L 278.90,309.84 L 277.96,309.82 L 276.03,309.79 L 274.94,309.77 L 272.68,309.75 L 271.43,309.74 L 268.84,309.73 L 267.41,309.72 L 264.47,309.72 L 262.86,309.72 L 259.54,309.72 L 257.74,309.73 L 254.04,309.74 L 252.04,309.75 L 247.93,309.77 L 245.71,309.78 L 241.18,309.80 L 238.75,309.82 L 230.03,309.87 L 224.52,309.89 L 221.93,309.90 L 216.83,309.90 L 214.43,309.90 L 209.73,309.90 L 207.53,309.89 L 203.23,309.87 L 201.23,309.86 L 197.32,309.82 L 195.52,309.80 L 192.00,309.75 L 190.38,309.72 L 187.24,309.66 L 185.81,309.62 L 183.05,309.55 L 181.81,309.50 L 179.43,309.41 L 178.37,309.36 L 176.35,309.26 L 175.48,309.20 L 173.82,309.08 L 173.13,309.01 L 171.83,308.88 L 171.31,308.80 L 170.36,308.65 L 170.02,308.57 L 169.42,308.41 L 169.25,308.32 L 169.00,308.14 L 169.00,308.04 L 169.29,307.58 L 169.77,306.99 L 170.13,306.57 L 170.94,305.64 L 171.46,305.06 L 172.57,303.84 L 173.22,303.13 L 174.58,301.65 L 175.34,300.83 L 176.92,299.14 L 177.78,298.23 L 181.38,294.43 L 183.36,292.39 L 197.72,277.50 L 222.11,277.20 L 231.73,277.01 L 234.63,276.92 L 235.96,276.87 L 238.54,276.77 L 239.68,276.71 L 241.86,276.59 L 242.78,276.53 L 244.51,276.41 L 245.18,276.34 L 246.38,276.21 L 246.77,276.15 L 247.38,276.01 L 247.45,275.95 L 247.24,275.74 L 246.68,275.61 L 246.20,275.55 L 245.09,275.44 L 244.34,275.39 L 242.71,275.29 L 241.70,275.25 L 239.57,275.17 L 238.31,275.14 L 235.69,275.09 L 234.20,275.06 L 231.12,275.03 L 229.40,275.02 L 225.87,275.00 L 251.00,275.00 M 364.17,183.18 L 358.10,183.18 L 354.94,183.19 L 348.56,183.20 L 345.25,183.21 L 336.49,183.23 L 330.84,183.25 L 328.12,183.26 L 322.75,183.28 L 320.18,183.30 L 315.12,183.32 L 312.71,183.34 L 307.98,183.36 L 305.74,183.38 L 301.37,183.41 L 299.32,183.43 L 295.32,183.46 L 293.47,183.48 L 289.88,183.51 L 288.24,183.53 L 285.08,183.57 L 283.66,183.59 L 280.95,183.63 L 279.78,183.65 L 277.54,183.69 L 276.61,183.71 L 274.88,183.75 L 274.22,183.77 L 273.01,183.81 L 272.62,183.83 L 271.97,183.87 L 271.86,183.89 L 271.78,183.93 L 271.97,183.95 L 272.50,184.00 L 273.00,184.02 L 274.63,184.08 L 275.60,184.11 L 277.64,184.17 L 278.80,184.19 L 281.22,184.25 L 282.56,184.27 L 285.32,184.32 L 286.82,184.34 L 289.91,184.39 L 291.56,184.41 L 294.93,184.45 L 296.72,184.47 L 304.11,184.54 L 308.12,184.57 L 316.33,184.63 L 320.67,184.65 L 329.47,184.69 L 334.01,184.70 L 352.46,184.74 L 361.63,184.73 L 370.76,184.73 L 375.19,184.71 L 383.95,184.69 L 388.11,184.67 L 396.26,184.63 L 400.03,184.61 L 403.74,184.58 L 405.50,184.56 L 408.96,184.53 L 410.58,184.52 L 413.76,184.48 L 415.23,184.46 L 418.10,184.42 L 419.41,184.40 L 421.94,184.36 L 423.07,184.34 L 425.23,184.29 L 426.17,184.27 L 427.93,184.22 L 428.65,184.19 L 429.99,184.14 L 430.48,184.11 L 431.36,184.05 L 431.61,184.02 L 432.00,183.96 L 432.00,183.93 L 431.61,183.83 L 430.96,183.76 L 430.44,183.73 L 429.29,183.67 L 428.53,183.64 L 426.89,183.59 L 425.89,183.56 L 423.77,183.51 L 422.54,183.49 L 419.96,183.44 L 418.50,183.42 L 415.48,183.38 L 413.81,183.36 L 410.35,183.32 L 408.47,183.31 L 404.60,183.28 L 402.51,183.27 L 398.23,183.24 L 395.95,183.23 L 391.29,183.21 L 388.82,183.20 L 383.78,183.19 L 381.13,183.19 L 375.73,183.18 L 372.90,183.18 L 367.16,183.18 M 253.12,183.00 L 251.60,183.43 L 251.00,184.07 L 251.00,183.00 Z" fill="rgba(71,107,249,1)"/>
<path d="M 84.16,251.25 L 84.17,248.37 L 84.19,243.03 L 84.20,240.42 L 84.22,235.62 L 84.23,233.29 L 84.25,229.02 L 84.26,226.95 L 84.28,223.19 L 84.29,221.38 L 84.32,218.14 L 84.33,216.57 L 84.36,213.82 L 84.38,212.51 L 84.41,210.24 L 84.43,209.17 L 84.46,207.38 L 84.48,206.54 L 84.52,205.20 L 84.54,204.59 L 84.59,203.71 L 84.61,203.32 L 84.66,202.87 L 84.68,202.70 L 84.74,202.68 L 84.76,202.72 L 84.82,203.12 L 84.85,203.36 L 84.91,204.16 L 84.95,204.61 L 85.02,205.79 L 85.12,208.00 L 85.18,209.20 L 85.28,212.36 L 85.33,214.04 L 85.42,218.04 L 85.46,220.14 L 85.54,224.83 L 85.57,227.24 L 85.63,232.46 L 85.66,235.12 L 85.70,240.70 L 85.72,243.52 L 85.74,249.31 L 85.73,266.69 L 85.72,269.52 L 85.71,274.98 L 85.71,277.66 L 85.72,282.74 L 85.73,285.23 L 85.76,289.81 L 85.78,292.04 L 85.84,296.01 L 85.86,297.92 L 85.93,301.18 L 85.97,302.70 L 86.05,305.12 L 86.10,306.22 L 86.19,307.68 L 86.22,307.99 L 86.27,308.39 L 86.35,308.69 L 86.41,308.74 L 86.86,308.86 L 87.14,308.92 L 88.00,309.03 L 88.48,309.09 L 89.71,309.20 L 90.36,309.26 L 91.90,309.36 L 93.50,309.47 L 97.45,309.65 L 104.08,309.85 L 106.41,309.90 L 110.65,310.06 L 112.67,310.15 L 116.03,310.36 L 116.80,310.42 L 118.10,310.54 L 118.71,310.60 L 119.67,310.72 L 120.09,310.79 L 120.65,310.91 L 121.00,311.10 L 121.00,311.16 L 120.63,311.28 L 120.38,311.34 L 119.56,311.45 L 119.09,311.51 L 117.86,311.60 L 117.20,311.65 L 115.61,311.74 L 114.77,311.78 L 112.87,311.85 L 111.89,311.88 L 109.73,311.93 L 102.50,312.00 L 84.00,312.00 L 84.16,251.25 M 164.00,311.26 L 164.00,311.21 L 164.36,310.75 L 164.60,310.46 L 165.40,309.57 L 165.85,309.08 L 167.04,307.80 L 167.68,307.12 L 169.21,305.52 L 170.01,304.68 L 171.84,302.80 L 172.78,301.83 L 174.85,299.71 L 181.74,292.76 L 199.48,275.00 L 223.94,275.00 L 225.87,275.00 L 229.40,275.02 L 231.12,275.03 L 234.20,275.06 L 235.69,275.09 L 238.31,275.14 L 239.57,275.17 L 241.70,275.25 L 242.71,275.29 L 244.34,275.39 L 245.09,275.44 L 246.20,275.55 L 246.68,275.61 L 247.24,275.74 L 247.45,275.95 L 247.38,276.01 L 246.77,276.15 L 246.38,276.21 L 245.18,276.34 L 244.51,276.41 L 242.78,276.53 L 241.86,276.59 L 239.68,276.71 L 238.54,276.77 L 235.96,276.87 L 234.63,276.92 L 231.73,277.01 L 222.11,277.20 L 197.72,277.50 L 183.36,292.39 L 181.38,294.43 L 177.78,298.23 L 176.92,299.14 L 175.34,300.83 L 174.58,301.65 L 173.22,303.13 L 172.57,303.84 L 171.46,305.06 L 170.94,305.64 L 170.13,306.57 L 169.77,306.99 L 169.29,307.58 L 169.00,308.04 L 169.00,308.14 L 169.25,308.32 L 169.42,308.41 L 170.02,308.57 L 170.36,308.65 L 171.31,308.80 L 171.83,308.88 L 173.13,309.01 L 173.82,309.08 L 175.48,309.20 L 176.35,309.26 L 178.37,309.36 L 179.43,309.41 L 181.81,309.50 L 183.05,309.55 L 185.81,309.62 L 187.24,309.66 L 190.38,309.72 L 192.00,309.75 L 195.52,309.80 L 197.32,309.82 L 201.23,309.86 L 203.23,309.87 L 207.53,309.89 L 209.73,309.90 L 214.43,309.90 L 216.83,309.90 L 221.93,309.90 L 224.52,309.89 L 230.03,309.87 L 238.75,309.82 L 241.18,309.80 L 245.71,309.78 L 247.93,309.77 L 252.04,309.75 L 254.04,309.74 L 257.74,309.73 L 259.54,309.72 L 262.86,309.72 L 264.47,309.72 L 267.41,309.72 L 268.84,309.73 L 271.43,309.74 L 272.68,309.75 L 274.94,309.77 L 276.03,309.79 L 277.96,309.82 L 278.90,309.84 L 280.53,309.88 L 281.32,309.90 L 282.68,309.96 L 283.97,310.01 L 285.78,310.15 L 286.57,310.23 L 287.48,310.42 L 288.00,310.75 L 288.00,310.87 L 287.34,311.09 L 287.12,311.14 L 286.47,311.23 L 286.12,311.28 L 285.19,311.36 L 284.70,311.40 L 283.48,311.48 L 282.83,311.51 L 281.29,311.58 L 280.47,311.61 L 278.59,311.67 L 277.60,311.70 L 275.35,311.74 L 274.18,311.77 L 271.54,311.81 L 270.17,311.83 L 267.12,311.86 L 265.54,311.88 L 262.06,311.91 L 260.27,311.92 L 256.33,311.94 L 254.30,311.95 L 249.89,311.97 L 247.62,311.98 L 242.71,311.99 L 240.19,311.99 L 234.76,312.00 L 226.00,312.00 L 221.74,312.00 L 213.55,311.98 L 209.52,311.98 L 201.93,311.94 L 198.22,311.92 L 191.40,311.87 L 188.10,311.85 L 182.21,311.78 L 180.81,311.77 L 178.20,311.73 L 176.94,311.71 L 174.63,311.67 L 173.51,311.65 L 171.51,311.61 L 170.55,311.59 L 168.89,311.55 L 168.11,311.53 L 166.80,311.48 L 166.19,311.46 L 165.27,311.41 L 164.85,311.38 L 164.32,311.34 L 164.11,311.31 M 323.00,267.44 L 323.00,263.76 L 323.02,257.08 L 323.03,253.86 L 323.06,248.09 L 323.08,245.33 L 323.14,240.49 L 323.17,238.18 L 323.25,234.27 L 323.29,232.43 L 323.39,229.46 L 323.45,228.09 L 323.56,226.05 L 323.63,225.15 L 323.77,224.06 L 324.00,223.50 L 324.08,223.55 L 324.23,224.34 L 324.30,224.85 L 324.43,226.54 L 324.49,227.49 L 324.60,230.06 L 324.65,231.44 L 324.74,234.86 L 324.78,236.66 L 324.85,240.90 L 324.88,243.11 L 324.93,248.14 L 324.96,250.75 L 324.98,256.55 L 325.00,266.09 L 325.00,268.53 L 325.00,272.99 L 325.00,275.16 L 325.01,279.10 L 325.01,281.01 L 325.02,284.47 L 325.03,286.14 L 325.04,289.13 L 325.05,290.58 L 325.08,293.15 L 325.09,294.39 L 325.12,296.58 L 325.14,297.62 L 325.19,299.45 L 325.21,300.32 L 325.26,301.82 L 325.29,302.54 L 325.36,303.75 L 325.40,304.32 L 325.48,305.27 L 325.57,306.17 L 325.79,307.32 L 325.91,307.81 L 326.21,308.36 L 326.75,308.78 L 326.87,308.83 L 327.40,308.93 L 327.71,308.97 L 328.57,309.06 L 329.05,309.10 L 330.21,309.18 L 330.83,309.22 L 332.25,309.29 L 333.72,309.35 L 337.23,309.44 L 343.00,309.50 L 357.50,309.50 L 358.00,265.83 L 358.03,262.83 L 358.12,257.05 L 358.16,254.20 L 358.25,248.82 L 358.30,246.19 L 358.41,241.33 L 358.46,238.98 L 358.57,234.77 L 358.63,232.76 L 358.75,229.32 L 358.80,227.70 L 358.92,225.15 L 358.98,224.00 L 359.09,222.46 L 359.12,222.14 L 359.17,221.72 L 359.25,221.42 L 359.28,221.39 L 359.33,221.58 L 359.35,221.71 L 359.40,222.20 L 359.43,222.48 L 359.47,223.26 L 359.50,223.68 L 359.54,224.73 L 359.59,225.84 L 359.67,228.82 L 359.71,230.43 L 359.78,234.30 L 359.81,236.34 L 359.87,240.97 L 359.90,243.38 L 359.94,248.66 L 359.96,251.37 L 359.98,257.18 L 360.00,266.33 L 360.00,312.00 L 341.50,312.00 L 323.00,312.00 L 323.00,267.44 M 395.00,267.94 L 395.00,264.29 L 395.02,257.68 L 395.03,254.49 L 395.06,248.79 L 395.08,246.05 L 395.14,241.27 L 395.17,238.99 L 395.25,235.13 L 395.29,233.31 L 395.39,230.37 L 395.45,229.02 L 395.57,227.01 L 395.63,226.13 L 395.77,225.05 L 396.00,224.50 L 396.08,224.55 L 396.23,225.33 L 396.30,225.83 L 396.42,227.50 L 396.48,228.44 L 396.59,230.97 L 396.63,232.34 L 396.71,235.72 L 396.75,237.51 L 396.81,241.71 L 396.83,243.91 L 396.87,248.91 L 396.88,251.50 L 396.89,257.28 L 396.88,266.81 L 396.76,308.50 L 401.13,309.20 L 401.43,309.25 L 402.24,309.34 L 402.68,309.39 L 403.73,309.47 L 404.84,309.56 L 407.59,309.69 L 409.03,309.76 L 412.19,309.84 L 417.00,309.89 L 418.84,309.89 L 421.83,309.89 L 423.21,309.89 L 425.39,309.90 L 426.39,309.91 L 427.89,309.93 L 428.57,309.95 L 429.52,310.01 L 429.93,310.04 L 430.45,310.14 L 430.67,310.19 L 430.88,310.33 L 431.00,311.00 L 431.00,311.08 L 430.69,311.22 L 430.49,311.29 L 429.78,311.42 L 429.38,311.48 L 428.29,311.59 L 427.70,311.65 L 426.25,311.74 L 425.48,311.78 L 423.68,311.85 L 422.73,311.88 L 420.59,311.93 L 419.48,311.95 L 417.03,311.98 L 413.00,312.00 L 395.00,312.00 L 395.00,267.94 M 286.66,283.34 L 286.54,279.16 L 286.35,271.20 L 286.26,267.30 L 286.14,259.99 L 286.09,256.43 L 286.03,249.91 L 286.01,246.76 L 286.03,241.16 L 286.04,239.82 L 286.06,237.35 L 286.08,236.14 L 286.12,233.94 L 286.15,232.88 L 286.21,230.97 L 286.24,230.05 L 286.32,228.46 L 286.36,227.70 L 286.45,226.43 L 286.50,225.83 L 286.61,224.91 L 286.67,224.49 L 286.79,223.92 L 287.00,223.50 L 287.08,223.45 L 287.23,224.02 L 287.31,224.41 L 287.43,225.86 L 287.50,226.70 L 287.61,229.04 L 287.66,230.31 L 287.75,233.52 L 287.79,235.24 L 287.86,239.32 L 287.89,241.46 L 287.94,246.41 L 287.96,248.98 L 287.98,254.78 L 288.00,264.44 L 288.00,267.30 L 287.99,272.79 L 287.99,275.49 L 287.97,280.58 L 287.96,283.06 L 287.94,287.64 L 287.93,289.85 L 287.90,293.79 L 287.88,295.68 L 287.85,298.88 L 287.83,300.37 L 287.79,302.72 L 287.77,303.78 L 287.73,305.15 L 287.72,305.43 L 287.69,305.78 L 287.66,306.00 L 287.64,306.00 L 287.58,305.54 L 287.55,305.23 L 287.48,304.21 L 287.44,303.64 L 287.36,302.12 L 287.31,301.30 L 287.23,299.34 L 287.18,298.32 L 287.09,295.99 L 287.04,294.78 L 286.94,292.14 L 286.85,289.43 M 155.00,262.44 L 155.00,259.18 L 155.02,253.25 L 155.03,250.39 L 155.06,245.28 L 155.08,242.83 L 155.14,238.53 L 155.17,236.49 L 155.25,233.02 L 155.29,231.39 L 155.39,228.76 L 155.45,227.54 L 155.57,225.74 L 155.63,224.94 L 155.77,223.98 L 156.00,223.50 L 156.08,223.55 L 156.23,224.24 L 156.30,224.69 L 156.42,226.15 L 156.49,226.98 L 156.60,229.18 L 156.65,230.38 L 156.74,233.30 L 156.78,234.86 L 156.85,238.47 L 156.88,240.37 L 156.93,244.65 L 156.96,246.88 L 156.98,251.81 L 157.00,259.89 L 157.00,262.35 L 157.01,267.09 L 157.02,269.42 L 157.05,273.84 L 157.07,275.99 L 157.11,279.97 L 157.14,281.90 L 157.20,285.35 L 157.23,287.01 L 157.30,289.83 L 157.33,291.16 L 157.41,293.25 L 157.45,294.20 L 157.53,295.47 L 157.67,296.34 L 157.85,296.52 L 158.68,296.32 L 160.17,295.34 L 160.68,294.88 L 161.67,294.37 L 162.69,294.35 L 162.78,294.44 L 162.65,294.89 L 162.55,295.15 L 162.11,295.85 L 161.60,296.60 L 160.03,298.45 L 159.21,299.36 L 157.56,300.91 L 157.17,301.24 L 156.52,301.70 L 155.80,302.00 L 155.78,302.00 L 155.72,301.79 L 155.70,301.66 L 155.64,301.19 L 155.59,300.66 L 155.49,298.88 L 155.44,297.87 L 155.36,295.22 L 155.31,293.79 L 155.24,290.38 L 155.20,288.59 L 155.14,284.52 L 155.11,282.41 L 155.06,277.80 L 155.04,275.44 L 155.02,270.39 L 155.01,267.82 M 190.67,265.33 L 190.62,265.29 L 190.53,264.41 L 190.49,263.85 L 190.41,262.02 L 190.37,260.99 L 190.29,258.32 L 190.26,256.89 L 190.20,253.48 L 190.17,251.69 L 190.11,247.66 L 190.09,245.57 L 190.05,241.01 L 190.04,238.68 L 190.01,233.71 L 190.00,225.92 L 190.00,223.25 L 189.99,218.10 L 189.98,215.56 L 189.96,210.75 L 189.94,208.40 L 189.90,204.04 L 189.88,201.92 L 189.83,198.12 L 189.81,196.29 L 189.75,193.16 L 189.72,191.68 L 189.66,189.32 L 189.62,188.25 L 189.55,186.78 L 189.44,185.70 L 189.38,185.54 L 188.89,185.27 L 188.57,185.14 L 187.38,184.94 L 186.67,184.85 L 184.53,184.70 L 183.93,184.67 L 182.50,184.62 L 181.75,184.59 L 180.00,184.55 L 179.08,184.53 L 176.98,184.50 L 175.89,184.49 L 173.41,184.47 L 172.12,184.46 L 169.23,184.45 L 167.73,184.45 L 164.40,184.46 L 162.68,184.46 L 158.88,184.47 L 156.92,184.48 L 152.62,184.50 L 150.40,184.51 L 145.57,184.54 L 137.69,184.60 L 134.76,184.62 L 129.39,184.66 L 126.79,184.68 L 122.04,184.72 L 119.74,184.74 L 115.56,184.78 L 113.54,184.81 L 109.90,184.85 L 108.15,184.87 L 105.01,184.92 L 103.50,184.94 L 100.82,185.00 L 99.54,185.02 L 97.28,185.08 L 96.21,185.11 L 94.34,185.18 L 93.45,185.22 L 91.93,185.29 L 91.21,185.33 L 90.00,185.42 L 88.86,185.52 L 87.34,185.74 L 86.69,185.86 L 85.91,186.15 L 85.25,186.68 L 84.97,187.06 L 84.59,187.50 L 84.42,187.67 L 84.21,187.65 L 84.12,187.58 L 84.04,187.07 L 84.00,185.69 L 84.00,183.00 L 138.00,183.00 L 192.00,183.00 L 192.00,224.50 L 192.00,227.35 L 191.99,232.84 L 191.99,235.53 L 191.97,240.61 L 191.97,243.09 L 191.94,247.66 L 191.93,249.87 L 191.90,253.81 L 191.89,255.69 L 191.85,258.89 L 191.83,260.38 L 191.80,262.73 L 191.78,263.78 L 191.73,265.15 L 191.72,265.43 L 191.70,265.78 L 191.67,266.00 L 191.58,266.00 L 191.24,265.80 L 191.05,265.68 M 123.55,219.11 L 123.62,219.05 L 124.02,218.92 L 124.27,218.86 L 125.00,218.73 L 125.41,218.66 L 126.43,218.54 L 126.97,218.47 L 128.25,218.35 L 129.58,218.23 L 132.81,218.02 L 138.21,217.78 L 139.56,217.74 L 141.90,217.68 L 143.01,217.66 L 144.92,217.63 L 145.82,217.62 L 147.34,217.64 L 148.05,217.65 L 149.21,217.71 L 149.75,217.74 L 150.59,217.84 L 150.98,217.90 L 151.55,218.05 L 152.43,218.67 L 152.48,218.81 L 152.42,219.04 L 152.35,219.15 L 152.02,219.33 L 151.82,219.42 L 151.18,219.56 L 150.82,219.63 L 149.82,219.74 L 149.27,219.79 L 147.87,219.86 L 147.11,219.90 L 145.26,219.94 L 144.27,219.96 L 141.91,219.99 L 137.77,220.00 L 135.54,220.00 L 131.71,219.93 L 130.81,219.91 L 129.20,219.86 L 128.44,219.83 L 127.11,219.75 L 126.48,219.71 L 125.45,219.62 L 124.98,219.57 L 124.28,219.47 L 123.98,219.42 L 123.63,219.30 L 123.51,219.24 M 291.00,219.00 L 291.00,218.85 L 291.71,218.59 L 292.17,218.47 L 293.72,218.28 L 294.58,218.19 L 296.83,218.07 L 300.86,218.00 L 303.57,218.00 L 309.14,217.82 L 310.44,217.76 L 312.69,217.62 L 315.21,217.38 L 316.11,217.26 L 317.45,217.15 L 318.06,217.12 L 318.92,217.22 L 319.31,217.29 L 319.81,217.61 L 320.32,218.38 L 320.46,218.75 L 320.19,219.25 L 320.05,219.36 L 319.55,219.53 L 319.25,219.61 L 318.36,219.73 L 317.87,219.79 L 316.53,219.87 L 315.80,219.90 L 313.93,219.95 L 312.92,219.97 L 310.45,219.99 L 305.97,220.00 L 303.64,220.00 L 299.70,219.93 L 298.78,219.91 L 297.14,219.85 L 296.35,219.81 L 294.99,219.73 L 294.35,219.69 L 293.28,219.59 L 292.79,219.54 L 292.03,219.42 L 291.69,219.36 L 291.26,219.22 L 291.09,219.15 M 363.00,218.50 L 363.23,218.37 L 363.93,218.13 L 364.32,218.01 L 365.29,217.81 L 366.33,217.61 L 369.04,217.31 L 370.47,217.18 L 373.70,217.01 L 375.35,216.94 L 378.77,216.91 L 380.46,216.91 L 383.69,217.01 L 385.25,217.08 L 387.95,217.31 L 389.20,217.44 L 391.02,217.81 L 391.40,217.90 L 391.94,218.13 L 392.36,218.50 L 392.42,218.66 L 392.41,218.94 L 392.37,219.07 L 392.10,219.28 L 391.92,219.38 L 391.33,219.54 L 390.98,219.62 L 389.98,219.73 L 389.43,219.78 L 387.96,219.86 L 387.16,219.89 L 385.15,219.93 L 384.06,219.95 L 381.44,219.96 L 376.72,219.96 L 374.90,219.96 L 371.85,219.95 L 370.43,219.94 L 368.11,219.90 L 367.04,219.88 L 365.38,219.83 L 364.63,219.79 L 363.55,219.70 L 363.08,219.65 L 362.51,219.52 L 362.28,219.45 L 362.15,219.27 L 362.13,219.17 L 362.35,218.93 L 362.50,218.80 M 251.00,184.50 L 251.00,184.07 L 251.60,183.43 L 253.12,183.00 L 253.57,183.00 L 254.15,183.06 L 254.40,183.10 L 254.62,183.28 L 254.68,183.39 L 254.55,183.74 L 254.00,184.50 L 253.66,184.91 L 252.86,185.56 L 251.88,186.00 L 251.64,186.00 L 251.26,185.56 L 251.10,185.29 M 273.00,184.02 L 272.50,184.00 L 271.97,183.95 L 271.78,183.93 L 271.86,183.89 L 271.97,183.87 L 272.62,183.83 L 273.01,183.81 L 274.22,183.77 L 274.88,183.75 L 276.61,183.71 L 277.54,183.69 L 279.78,183.65 L 280.95,183.63 L 283.66,183.59 L 285.08,183.57 L 288.24,183.53 L 289.88,183.51 L 293.47,183.48 L 295.32,183.46 L 299.32,183.43 L 301.37,183.41 L 305.74,183.38 L 307.98,183.36 L 312.71,183.34 L 315.12,183.32 L 320.18,183.30 L 322.75,183.28 L 328.12,183.26 L 330.84,183.25 L 336.49,183.23 L 345.25,183.21 L 348.56,183.20 L 354.94,183.19 L 358.10,183.18 L 364.17,183.18 L 367.16,183.18 L 372.90,183.18 L 375.73,183.18 L 381.13,183.19 L 383.78,183.19 L 388.82,183.20 L 391.29,183.21 L 395.95,183.23 L 398.23,183.24 L 402.51,183.27 L 404.60,183.28 L 408.47,183.31 L 410.35,183.32 L 413.81,183.36 L 415.48,183.38 L 418.50,183.42 L 419.96,183.44 L 422.54,183.49 L 423.77,183.51 L 425.89,183.56 L 426.89,183.59 L 428.53,183.64 L 429.29,183.67 L 430.44,183.73 L 430.96,183.76 L 431.61,183.83 L 432.00,183.93 L 432.00,183.96 L 431.61,184.02 L 431.36,184.05 L 430.48,184.11 L 429.99,184.14 L 428.65,184.19 L 427.93,184.22 L 426.17,184.27 L 425.23,184.29 L 423.07,184.34 L 421.94,184.36 L 419.41,184.40 L 418.10,184.42 L 415.23,184.46 L 413.76,184.48 L 410.58,184.52 L 408.96,184.53 L 405.50,184.56 L 403.74,184.58 L 400.03,184.61 L 396.26,184.63 L 388.11,184.67 L 383.95,184.69 L 375.19,184.71 L 370.76,184.73 L 361.63,184.73 L 352.46,184.74 L 334.01,184.70 L 329.47,184.69 L 320.67,184.65 L 316.33,184.63 L 308.12,184.57 L 304.11,184.54 L 296.72,184.47 L 294.93,184.45 L 291.56,184.41 L 289.91,184.39 L 286.82,184.34 L 285.32,184.32 L 282.56,184.27 L 281.22,184.25 L 278.80,184.19 L 277.64,184.17 L 275.60,184.11 L 274.63,184.08 Z" fill="rgba(72,109,252,1)"/>
</g>
</svg>